<?xml version="1.0" encoding="UTF-8"?>
<!-- Generator: Adobe Illustrator 18.1.1, SVG Export Plug-In . SVG Version: 6.00 Build 0)  -->
<svg version="1.1" id="Logo_1_" xmlns="http://www.w3.org/2000/svg" xmlns:xlink="http://www.w3.org/1999/xlink" x="0px" y="0px" viewBox="98 53 375 75" enable-background="new 98 53 375 75" xml:space="preserve">
<path id="Avocado_1_" fill="#FA641E" d="M145.9,92.5c-2.2-6.6-6-12.5-8.5-19c-2.2-5.8-3.5-13.5-8.6-17.4c-4.1-3.1-10-2.7-14,0.5  c-5.2,4.1-5.5,11.8-6.4,17.8c-1,7.2-3.2,12.8-6.7,19.1c-3.1,5.5-3.6,12.1-1.3,18.1c4.6,11.8,16.7,17.6,29,15  C145.1,123.2,150.5,106.4,145.9,92.5z M123.6,112.2c-12,1.2-11.4-19.1-1.9-21.2C131.3,88.8,136,111,123.6,112.2z"/>
<g id="avocadostore.de">
	<path fill="#424035" d="M178.9,85.6c0,1,0.6,2,1.5,2c0.4,0,0.7-0.1,0.9-0.2v3.7c-0.7,0.3-1.7,0.7-2.8,0.7c-2.5,0-4.6-1-4.8-3.7   h-0.1c-1.5,2.8-3.7,4.1-7,4.1c-4.5,0-7.3-2.5-7.3-7.9c0-6.3,2.7-7.6,6.5-8.8l4.4-1.2c2-0.6,3.3-1.2,3.3-3.6c0-2.6-0.9-4.2-3.9-4.2   c-3.8,0-4.3,2.7-4.3,5.4H160c0-6,2.5-9.3,9.9-9.3c5,0,8.9,1.9,8.9,6.9L178.9,85.6L178.9,85.6z M173.6,76.7   c-1.5,1.2-4.6,1.8-6.3,2.6c-1.6,0.8-2.3,2.5-2.3,4.5c0,2.4,1.2,4.2,3.5,4.2c3.4,0,5.1-2.6,5.1-6.7   C173.6,81.3,173.6,76.7,173.6,76.7z"/>
	<path fill="#424035" d="M181.6,63.4h6.1l4.9,22.2h0.1l4.4-22.2h6l-7.4,28.1h-6.6L181.6,63.4z"/>
	<path fill="#424035" d="M215,62.6c8.2,0,10.5,6.1,10.5,14.8s-2.7,14.8-10.5,14.8s-10.5-6.1-10.5-14.8S206.8,62.6,215,62.6z    M215,88.1c4.1,0,4.9-3.5,4.9-10.6c0-6.2-0.7-10.6-4.9-10.6c-4.1,0-4.8,4.4-4.8,10.6C210.2,84.6,210.9,88.1,215,88.1z"/>
	<path fill="#424035" d="M248.8,81.3c-0.4,6.7-2.7,11-9.6,11c-8.2,0-10.5-6.1-10.5-14.8s2.3-14.8,10.5-14.8   c8.4-0.1,9.7,6.6,9.7,10.1h-5.6c0-2.6-0.7-6-4-5.9c-4.1,0-4.8,4.4-4.8,10.6s0.7,10.6,4.8,10.6c3.1,0.1,4.3-2.6,4.3-6.8H248.8z"/>
	<path fill="#424035" d="M271.4,85.6c0,1,0.6,2,1.5,2c0.4,0,0.7-0.1,0.9-0.2v3.7c-0.7,0.3-1.7,0.7-2.8,0.7c-2.5,0-4.6-1-4.8-3.7   h-0.1c-1.5,2.8-3.7,4.1-7,4.1c-4.5,0-7.3-2.5-7.3-7.9c0-6.3,2.7-7.6,6.5-8.8l4.4-1.2c2-0.6,3.3-1.2,3.3-3.6c0-2.6-0.9-4.2-3.9-4.2   c-3.8,0-4.3,2.7-4.3,5.4h-5.3c0-6,2.5-9.3,9.9-9.3c5,0,8.9,1.9,8.9,6.9v16.1H271.4z M266.1,76.7c-1.5,1.2-4.6,1.8-6.3,2.6   c-1.6,0.8-2.3,2.5-2.3,4.5c0,2.4,1.2,4.2,3.5,4.2c3.4,0,5.1-2.6,5.1-6.7V76.7z"/>
	<path fill="#424035" d="M291.3,88.1L291.3,88.1c-0.8,1.8-2.2,4.2-6.3,4.2c-6.6,0-9.2-5.5-9.2-15.2c0-12.5,4.4-14.4,8.7-14.4   c3,0,5.3,1.5,6.4,4h0.1V54.2h5.6v37.3h-5.3V88.1z M286.2,67.1c-3.2,0-4.4,2.6-4.4,10.2c0,6.4,0.8,10.4,4.8,10.4c3.9,0,4.8-4,4.8-10   C291.3,71,290.5,67.1,286.2,67.1z"/>
	<path fill="#424035" d="M311.2,62.6c8.2,0,10.5,6.1,10.5,14.8s-2.7,14.8-10.5,14.8c-7.8,0-10.5-6.1-10.5-14.8   C300.8,68.7,303.1,62.6,311.2,62.6z M311.2,88.1c4.1,0,4.9-3.5,4.9-10.6c0-6.2-0.7-10.6-4.9-10.6c-4.1,0-4.8,4.4-4.8,10.6   C306.4,84.6,307.1,88.1,311.2,88.1z"/>
	<path fill="#FA641E" d="M331.4,77.7c-3.9-1.5-5.3-3.8-5.3-6.6c0-5.7,3.6-8,8.3-8c5.2,0,7.6,2.7,7.6,7.7v0.8h-3.1v-0.8   c0-3.6-1.7-5.1-4.5-5.1c-3.7,0-5.1,1.9-5.1,4.7c0,1.9,0.6,3.5,3.8,4.7l4.5,1.7c3.8,1.4,5.2,4,5.2,7.1c0,4.8-2.7,8.3-8.6,8.3   c-5.7,0-8.5-2.4-8.5-8.6v-0.9h3.1v0.7c0,4.1,1.8,6.2,5.3,6.2c3.3,0,5.5-1.9,5.5-5c0-2.5-1-4-3.8-5.1L331.4,77.7z"/>
	<path fill="#FA641E" d="M348.3,66.4h-3.8v-2.6h3.8V56h3.1v7.7h4.9v2.6h-4.9v19.9c0,2.2,0.9,2.9,3,2.9c0.6,0,1.3-0.1,1.9-0.3v2.6   c-0.4,0.2-1.2,0.3-2.2,0.3c-4.2,0-5.9-1.2-5.9-4.9L348.3,66.4L348.3,66.4z"/>
	<path fill="#FA641E" d="M367.3,63.1c6.1,0,9.6,4.9,9.6,14.5c0,9.7-3.5,14.5-9.6,14.5s-9.6-4.9-9.6-14.5   C357.7,68,361.2,63.1,367.3,63.1z M367.3,89.5c3.5,0,6.2-3,6.2-11.9c0-8.8-2.7-11.9-6.2-11.9s-6.2,3-6.2,11.9   C361.1,86.5,363.8,89.5,367.3,89.5z"/>
	<path fill="#FA641E" d="M381.1,63.7h3.1V68h0.1c1.2-3.1,3.8-5,7-5c0.4,0,0.7,0.1,1.1,0.2v3.1c-0.5-0.1-1-0.2-1.5-0.2   c-3.5,0-6.7,2.5-6.7,7.9v17.4h-3.1V63.7z"/>
	<path fill="#FA641E" d="M412,82.3c-0.5,5.9-3.7,9.8-8.9,9.8c-5.9,0-9.3-4.1-9.3-14.5c0-9.6,3.5-14.5,9.6-14.5   c6.2,0,8.9,4.2,8.9,13.5v1.2h-15.2v1.3c0,8,2.8,10.5,5.9,10.5c3.3,0,5.3-2.4,5.9-7.2L412,82.3L412,82.3z M408.9,75.1   c-0.1-6.9-2-9.4-5.9-9.4s-5.8,2.5-5.9,9.4H408.9z"/>
	<path fill="#424035" d="M416.7,84.6h6v6.9h-6V84.6z"/>
	<path fill="#424035" d="M441.5,88.1h-0.1c-0.7,1.8-2.1,4.2-6.2,4.2c-6.6,0-9.2-5.5-9.2-15.2c0-12.5,4.4-14.4,8.7-14.4   c3,0,5.3,1.5,6.4,4h0.1V54.2h5.6v37.3h-5.3V88.1z M436.4,67.1c-3.2,0-4.4,2.6-4.4,10.2c0,6.4,0.8,10.4,4.8,10.4c3.9,0,4.8-4,4.8-10   C441.5,71,440.7,67.1,436.4,67.1z"/>
	<path fill="#424035" d="M456.8,78.2v1.6c0,3.8,0.5,8.6,4.7,8.6c4,0,4.5-4.6,4.5-6.3h5.3c0,6.2-3.8,10.1-9.9,10.1   c-4.6,0-10.3-1.4-10.3-14.4c0-7.4,1.6-15.2,10.4-15.2c7.8,0,9.9,4.7,9.9,12.6v3C471.4,78.2,456.8,78.2,456.8,78.2z M465.9,74.3   v-1.5c0-3.6-1.2-6.3-4.3-6.3c-3.6,0-4.7,3.6-4.7,7.2v0.6H465.9z"/>
</g>
<g id="Eco_Fashion__x26__Green_Lifestyle">
	<path fill="#424035" d="M161.2,103.3h9.6v1.5H163v7h7.3v1.5H163v7.9h8v1.5h-9.8V103.3z"/>
	<path fill="#424035" d="M182.9,117.9c-0.2,3.1-1.9,5.1-4.6,5.1c-3,0-4.8-2.1-4.8-7.5c0-5,1.8-7.5,4.9-7.5c2.7,0,4.3,1.6,4.4,4.6   h-1.6c-0.2-2.2-1.1-3.2-2.8-3.2c-1.8,0-3.2,1.1-3.2,6.2c0,5.4,1.5,6.1,3.1,6.1s2.7-1.2,3-3.7L182.9,117.9L182.9,117.9z"/>
	<path fill="#424035" d="M190.4,108c3.2,0,4.9,2.5,4.9,7.5s-1.8,7.5-4.9,7.5c-3.1,0-4.9-2.5-4.9-7.5S187.3,108,190.4,108z    M190.4,121.6c1.8,0,3.2-1.6,3.2-6.2c0-4.6-1.4-6.1-3.2-6.1c-1.8,0-3.2,1.6-3.2,6.1C187.2,120,188.6,121.6,190.4,121.6z"/>
	<path fill="#424035" d="M206.6,103.3h9.6v1.5h-7.8v7h7.3v1.5h-7.3v9.3h-1.7L206.6,103.3L206.6,103.3z"/>
	<path fill="#424035" d="M218.9,112.5c0-2.9,1.4-4.6,4.4-4.6s4,1.5,4,3.8v8.5c0,0.8,0.3,1.2,0.8,1.2h0.5v1.2   c-0.3,0.1-0.5,0.2-0.8,0.2c-1.3,0-2.1-0.3-2.1-1.8v-0.5h-0.1c-0.6,1.9-2.1,2.4-3.7,2.4c-2.5,0-3.6-1.6-3.6-4c0-1.9,0.9-3.4,2.9-4   l3-0.9c1.1-0.3,1.4-0.6,1.4-2.3c0-1.8-1-2.5-2.5-2.5c-1.9,0-2.8,1.2-2.8,3.2h-1.4V112.5z M225.7,114.5L225.7,114.5   c-0.2,0.5-1.1,0.8-1.8,0.9l-1.3,0.4c-1.6,0.4-2.5,1.3-2.5,3s0.9,2.8,2.3,2.8c2,0,3.3-1.5,3.3-4V114.5z"/>
	<path fill="#424035" d="M233.9,115.5c-2-0.8-2.8-2-2.8-3.4c0-2.9,1.8-4.1,4.3-4.1c2.7,0,3.9,1.4,3.9,4v0.4h-1.6V112   c0-1.9-0.9-2.6-2.3-2.6c-1.9,0-2.6,1-2.6,2.4c0,1,0.3,1.8,1.9,2.4l2.3,0.9c1.9,0.7,2.7,2.1,2.7,3.6c0,2.5-1.4,4.3-4.4,4.3   c-2.9,0-4.4-1.2-4.4-4.5V118h1.6v0.4c0,2.1,0.9,3.2,2.8,3.2c1.7,0,2.8-1,2.8-2.6c0-1.3-0.5-2.1-1.9-2.6L233.9,115.5z"/>
	<path fill="#424035" d="M243,103.3h1.6v6.9h0.1c0.4-1.5,1.8-2.3,3.5-2.3c2.2,0,3.7,1.1,3.7,3.8v10.8h-1.6v-10.2   c0-2-0.8-2.9-2.5-2.9c-1.9,0-3.2,1.5-3.2,3.7v9.6H243V103.3z"/>
	<path fill="#424035" d="M255.7,103.3h1.6v2.8h-1.6V103.3z M255.7,108.3h1.6v14.3h-1.6V108.3z"/>
	<path fill="#424035" d="M265.6,108c3.2,0,4.9,2.5,4.9,7.5s-1.8,7.5-4.9,7.5s-4.9-2.5-4.9-7.5S262.5,108,265.6,108z M265.6,121.6   c1.8,0,3.2-1.6,3.2-6.2c0-4.6-1.4-6.1-3.2-6.1s-3.2,1.6-3.2,6.1C262.4,120,263.8,121.6,265.6,121.6z"/>
	<path fill="#424035" d="M273.8,108.3h1.5v2h0.1c0.8-1.6,2.2-2.3,3.7-2.3c2.2,0,3.7,1.1,3.7,3.8v10.8h-1.6v-10.3   c0-2-0.8-2.9-2.5-2.9c-1.9,0-3.2,1.5-3.2,3.7v9.6h-1.6v-14.4H273.8z"/>
	<path fill="#424035" d="M304.2,120.3c-1.1,1.6-2.8,2.7-5.1,2.7c-3.3,0-5.4-2.3-5.4-5.1c0-2,1-3.6,2.8-5l1.6-1.2   c-1.4-1.8-2.2-3.2-2.2-4.8c0-2.3,1.8-3.6,3.9-3.6c2.2,0,3.7,1.4,3.7,3.6c0,1.6-0.6,3-3.4,5l4.2,5.8c0.5-1.2,0.7-2.5,0.7-3.6h1.6   c0,1.7-0.5,3.5-1.3,5l2.5,3.6H306L304.2,120.3z M298.9,112.7c-2.7,1.9-3.5,3.4-3.5,4.9c0,2.3,1.8,3.8,3.9,3.8c1.6,0,3.3-0.9,4-2.4   L298.9,112.7z M299.3,110.8c2.1-1.6,2.6-2.9,2.6-3.9c0-1.2-0.9-2.2-2.2-2.2s-2.2,0.9-2.2,2.2C297.5,107.9,298.2,109.3,299.3,110.8z   "/>
	<path fill="#424035" d="M323.4,114.2v-1.5h6.2v9.8h-1.3v-3.2h-0.1c-0.6,2.1-2.3,3.5-4.2,3.5c-3.9,0-6.2-3.1-6.2-10s2.2-10,6.2-10   c3.7,0,5.3,2.4,5.5,5.7h-1.7c0-2.3-1.3-4.3-3.8-4.3c-2.8,0-4.4,2.3-4.4,8.5s1.7,8.5,4.4,8.5c2.6,0,4-2.3,4-6.8V114h-4.6V114.2z"/>
	<path fill="#424035" d="M333.7,108.3h1.6v2.2h0.1c0.6-1.6,1.9-2.6,3.6-2.6c0.2,0,0.4,0,0.6,0.1v1.6c-0.3-0.1-0.5-0.1-0.8-0.1   c-1.8,0-3.5,1.3-3.5,4.1v9h-1.6V108.3L333.7,108.3z"/>
	<path fill="#424035" d="M350.8,117.9c-0.2,3.1-1.9,5.1-4.6,5.1c-3,0-4.8-2.1-4.8-7.5c0-5,1.8-7.5,4.9-7.5c3.2,0,4.6,2.2,4.6,7v0.6   h-7.8v0.7c0,4.1,1.5,5.4,3,5.4c1.7,0,2.8-1.2,3-3.7L350.8,117.9L350.8,117.9z M349.2,114.2c-0.1-3.6-1.1-4.9-3.1-4.9s-3,1.3-3,4.9   H349.2z"/>
	<path fill="#424035" d="M363.2,117.9c-0.2,3.1-1.9,5.1-4.6,5.1c-3,0-4.8-2.1-4.8-7.5c0-5,1.8-7.5,4.9-7.5c3.2,0,4.6,2.2,4.6,7v0.6   h-7.8v0.7c0,4.1,1.5,5.4,3,5.4c1.7,0,2.8-1.2,3-3.7L363.2,117.9L363.2,117.9z M361.6,114.2c-0.1-3.6-1.1-4.9-3.1-4.9s-3,1.3-3,4.9   H361.6z"/>
	<path fill="#424035" d="M366.7,108.3h1.5v2h0.1c0.8-1.6,2.2-2.3,3.7-2.3c2.2,0,3.7,1.1,3.7,3.8v10.8h-1.6v-10.3   c0-2-0.8-2.9-2.5-2.9c-1.9,0-3.2,1.5-3.2,3.7v9.6h-1.6v-14.4H366.7z"/>
	<path fill="#424035" d="M387.5,103.3h1.7v17.8h8v1.5h-9.7V103.3z"/>
	<path fill="#424035" d="M400.3,103.3h1.6v2.8h-1.6V103.3z M400.3,108.3h1.6v14.3h-1.6V108.3z"/>
	<path fill="#424035" d="M406.7,109.6h-2v-1.3h2v-1.7c0-2,0.4-3.5,3.1-3.5c0.5,0,0.7,0,1,0.1v1.3c-0.2-0.1-0.5-0.1-0.8-0.1   c-1.2,0-1.8,0.5-1.8,2.1v1.7h2.5v1.3h-2.5v13h-1.6L406.7,109.6L406.7,109.6z"/>
	<path fill="#424035" d="M422.1,117.9c-0.2,3.1-1.9,5.1-4.6,5.1c-3,0-4.8-2.1-4.8-7.5c0-5,1.8-7.5,4.9-7.5c3.2,0,4.6,2.2,4.6,7v0.6   h-7.8v0.7c0,4.1,1.5,5.4,3,5.4c1.7,0,2.8-1.2,3-3.7L422.1,117.9L422.1,117.9z M420.5,114.2c-0.1-3.6-1.1-4.9-3.1-4.9s-3,1.3-3,4.9   H420.5z"/>
	<path fill="#424035" d="M428,115.5c-2-0.8-2.8-2-2.8-3.4c0-2.9,1.8-4.1,4.3-4.1c2.7,0,3.9,1.4,3.9,4v0.4h-1.6V112   c0-1.9-0.9-2.6-2.3-2.6c-1.9,0-2.6,1-2.6,2.4c0,1,0.3,1.8,1.9,2.4l2.3,0.9c1.9,0.7,2.7,2.1,2.7,3.6c0,2.5-1.4,4.3-4.4,4.3   c-2.9,0-4.4-1.2-4.4-4.5V118h1.6v0.4c0,2.1,0.9,3.2,2.8,3.2c1.7,0,2.8-1,2.8-2.6c0-1.3-0.5-2.1-1.9-2.6L428,115.5z"/>
	<path fill="#424035" d="M437.8,109.6h-2v-1.3h2v-4h1.6v4h2.5v1.3h-2.5v10.3c0,1.1,0.5,1.5,1.5,1.5c0.3,0,0.6-0.1,1-0.2v1.3   c-0.2,0.1-0.6,0.2-1.1,0.2c-2.2,0-3-0.6-3-2.5V109.6z"/>
	<path fill="#424035" d="M444,108.3h1.7l3.2,12.4h0.1l2.9-12.4h1.7l-4.2,15.5c-0.8,2.8-1.6,3.6-3.8,3.6c-0.4,0-0.8,0-1.1-0.1V126   c0.4,0,0.7,0.1,1.1,0.1c1,0,1.7-0.4,2.1-1.9l0.4-1.3L444,108.3z"/>
	<path fill="#424035" d="M456.5,103.3h1.6v19.3h-1.6V103.3z"/>
	<path fill="#424035" d="M470.9,117.9c-0.2,3.1-1.9,5.1-4.6,5.1c-3,0-4.8-2.1-4.8-7.5c0-5,1.8-7.5,4.9-7.5c3.2,0,4.6,2.2,4.6,7v0.6   h-7.8v0.7c0,4.1,1.5,5.4,3,5.4c1.7,0,2.8-1.2,3-3.7L470.9,117.9L470.9,117.9z M469.3,114.2c-0.1-3.6-1.1-4.9-3.1-4.9s-3,1.3-3,4.9   H469.3z"/>
</g>
</svg>