<svg xmlns="http://www.w3.org/2000/svg" viewBox="0 0 280.077 70.866"><defs><style>.cls-1{fill:#fff;}.cls-2{fill:#d51317;}.cls-3{fill:#2c2926;}</style></defs><title>logo-gray</title><g id="logo-white"><path id="e" class="cls-1" d="M11.539,28.04a13.479,13.479,0,0,0,3.389,8.517,10.167,10.167,0,0,0,7.751,3.158,10.652,10.652,0,0,0,5.476-1.388,6.294,6.294,0,0,0,3.053-3.876h12.6c-1.487,4.849-3.688,8.582-7.371,11.2a22.165,22.165,0,0,1-13.182,3.924C9.689,49.573,0,41.024,0,23.925a29.518,29.518,0,0,1,1.551-9.857,21.206,21.206,0,0,1,4.507-7.56,19.489,19.489,0,0,1,7.221-4.833A23.567,23.567,0,0,1,22.486,0c7.366,0,12.461,2.33,16.241,6.986s5.527,11.675,5.527,21.054Zm20.348-7.848a12.976,12.976,0,0,0-.921-4.546,9.522,9.522,0,0,0-2.181-3.254,8.707,8.707,0,0,0-3.1-1.914A10.62,10.62,0,0,0,22.1,9.857a10.109,10.109,0,0,0-7.021,2.727,11.562,11.562,0,0,0-3.15,7.608Z"/><path id="p" class="cls-1" d="M48.295,70.866V.5H60.258l.1,5.766C63.127,1.818,67.594.239,73.464.239a17.379,17.379,0,0,1,7.7,1.723,17.9,17.9,0,0,1,6.46,4.976,24.167,24.167,0,0,1,4.211,7.943A34.185,34.185,0,0,1,93.37,25.5a35.094,35.094,0,0,1-1.292,9.809,23.178,23.178,0,0,1-3.78,7.7,17.081,17.081,0,0,1-6.077,5.024,16.245,16.245,0,0,1-7.7,1.771c-5.806,0-10.464-1.5-13.972-6.412V70.866Zm23.16-31.677q10.717,0,10.718-14.546a16.752,16.752,0,0,0-2.967-10.288,9.155,9.155,0,0,0-7.656-3.972,9.286,9.286,0,0,0-7.512,3.732,15.055,15.055,0,0,0-3.015,9.761Q61.023,39.19,71.455,39.189Z"/><path class="cls-1" d="M137.1,10.79a13.6,13.6,0,0,0-3.34-5.838,15.08,15.08,0,0,0-6.192-3.589A29.817,29.817,0,0,0,118.332.12a33.124,33.124,0,0,0-9.563,1.2,16.558,16.558,0,0,0-6.361,3.4,13.288,13.288,0,0,0-3.539,5.4,19.928,19.928,0,0,0-1.194,6.836h11.58a8.772,8.772,0,0,1,2.345-5.209c1.244-1.275,3.3-1.983,6.173-1.983a11.219,11.219,0,0,1,5.79,1.258,3.973,3.973,0,0,1,2.153,3.572,4,4,0,0,1-1.627,3.58q-1.628,1.1-6.316,1.766t-8.661,1.481a21.668,21.668,0,0,0-6.843,2.535,12.125,12.125,0,0,0-4.5,4.737,17.068,17.068,0,0,0-1.627,8.086,12.279,12.279,0,0,0,3.78,9.331q3.779,3.589,11.915,3.589a22.19,22.19,0,0,0,8.422-1.483,15.669,15.669,0,0,0,5.838-4.126,17.039,17.039,0,0,0,.766,4.057h11.172V18.686A27.527,27.527,0,0,0,137.1,10.79ZM124.519,34.524a10.849,10.849,0,0,1-5.933,5.455,11.993,11.993,0,0,1-4.45.813q-6.029,0-6.029-5.263a5.685,5.685,0,0,1,2.01-4.689q2.01-1.626,7.369-2.68,1.275-.247,2.326-.482h0s3.439-.737,5.7-1.351l-.078,4.225A8.955,8.955,0,0,1,124.519,34.524Z"/><path id="g" class="cls-1" d="M175.526,42.85a6,6,0,0,1-1.678,2.287,16.057,16.057,0,0,1-3.154,2.163,17.618,17.618,0,0,1-8.087,1.531,19.124,19.124,0,0,1-9.331-2.058,18.03,18.03,0,0,1-6.412-5.407,22.1,22.1,0,0,1-3.541-7.752,36.918,36.918,0,0,1-1.1-9,29.469,29.469,0,0,1,1.627-10,24.113,24.113,0,0,1,4.4-7.752A19.722,19.722,0,0,1,154.76,1.89,16.491,16.491,0,0,1,162.32.12c5.869,0,10.271,1.4,13.206,6.125V.5h12.1V48.927c0,3.572-.267,6.714-1.478,9.426a19.18,19.18,0,0,1-4.976,6.795,21.844,21.844,0,0,1-7.465,4.163,30.3,30.3,0,0,1-18.279.048,21.591,21.591,0,0,1-7.225-3.924,18.078,18.078,0,0,1-4.737-6.173,19,19,0,0,1-1.723-8.23h11.58a8.162,8.162,0,0,0,2.823,6.651,11.383,11.383,0,0,0,7.513,2.345,13.149,13.149,0,0,0,8.422-2.728,8.955,8.955,0,0,0,3.445-7.417ZM164.09,39.07a9.617,9.617,0,0,0,7.608-3.493q3.015-3.492,3.015-9.522,0-15.12-10.623-15.121T153.467,25.289q0,6.316,3.014,10.049A9.379,9.379,0,0,0,164.09,39.07Z"/><g id="s"><path class="cls-1" d="M278.976,28.495a8.861,8.861,0,0,0-3.4-4.067,25.6,25.6,0,0,0-6.747-2.823q-4.213-1.2-10.336-2.919a25.205,25.205,0,0,1-5.694-2.2,3.45,3.45,0,0,1-1.962-3.062,3.173,3.173,0,0,1,1.962-3.11,14.314,14.314,0,0,1,5.79-.909,9.854,9.854,0,0,1,5.981,1.59,6.02,6.02,0,0,1,2.2,3.648h12.092a14.965,14.965,0,0,0-5.052-10.3C270.682,1.6,265.737.173,258.975.173A34.507,34.507,0,0,0,249.6,1.247a18.812,18.812,0,0,0-6.22,2.905,10.449,10.449,0,0,0-3.254,4.2,11.975,11.975,0,0,0-1.1,5.069,16.554,16.554,0,0,0,.814,5.358,9.519,9.519,0,0,0,2.919,4.4,23.321,23.321,0,0,0,6.555,3.684,74.745,74.745,0,0,0,11.1,3.206,19.453,19.453,0,0,1,5.694,2.01,4.046,4.046,0,0,1,1.866,3.732,3.6,3.6,0,0,1-2.536,3.4,15.205,15.205,0,0,1-6.077,1.1,11.814,11.814,0,0,1-6.842-1.964,5.856,5.856,0,0,1-2.532-4.071H237.14a13.945,13.945,0,0,0,1.595,5.65,15.3,15.3,0,0,0,4.5,5.241,21.463,21.463,0,0,0,7.034,3.338,34.122,34.122,0,0,0,9.187,1.167q10.336,0,15.6-4.154a12.6,12.6,0,0,0,5.024-10.475A16.185,16.185,0,0,0,278.976,28.495Z"/></g><path id="e-2" data-name="e" class="cls-1" d="M202.461,28.04a13.479,13.479,0,0,0,3.389,8.517,10.167,10.167,0,0,0,7.751,3.158,10.652,10.652,0,0,0,5.476-1.388,6.294,6.294,0,0,0,3.053-3.876h12.6c-1.487,4.849-3.688,8.582-7.371,11.2a22.165,22.165,0,0,1-13.182,3.924c-13.571,0-23.261-8.549-23.261-25.648a29.518,29.518,0,0,1,1.551-9.857,21.206,21.206,0,0,1,4.507-7.56A19.489,19.489,0,0,1,204.2,1.675,23.567,23.567,0,0,1,213.408,0c7.366,0,12.461,2.33,16.241,6.986s5.527,11.675,5.527,21.054Zm20.348-7.848a12.976,12.976,0,0,0-.921-4.546,9.522,9.522,0,0,0-2.181-3.254,8.706,8.706,0,0,0-3.1-1.914,10.62,10.62,0,0,0-3.586-.622A10.109,10.109,0,0,0,206,12.585a11.562,11.562,0,0,0-3.15,7.608Z"/></g><g id="logo-gray"><path id="e-3" data-name="e" class="cls-2" d="M11.539,28.04a13.479,13.479,0,0,0,3.389,8.517,10.167,10.167,0,0,0,7.751,3.158,10.652,10.652,0,0,0,5.476-1.388,6.294,6.294,0,0,0,3.053-3.876h12.6c-1.487,4.849-3.688,8.582-7.371,11.2a22.165,22.165,0,0,1-13.182,3.924C9.689,49.573,0,41.024,0,23.925a29.518,29.518,0,0,1,1.551-9.857,21.206,21.206,0,0,1,4.507-7.56,19.489,19.489,0,0,1,7.221-4.833A23.567,23.567,0,0,1,22.486,0c7.366,0,12.461,2.33,16.241,6.986s5.527,11.675,5.527,21.054Zm20.348-7.848a12.976,12.976,0,0,0-.921-4.546,9.522,9.522,0,0,0-2.181-3.254,8.707,8.707,0,0,0-3.1-1.914A10.62,10.62,0,0,0,22.1,9.857a10.109,10.109,0,0,0-7.021,2.727,11.562,11.562,0,0,0-3.15,7.608Z"/><path id="p-2" data-name="p" class="cls-3" d="M48.295,70.866V.5H60.258l.1,5.766C63.127,1.818,67.594.239,73.464.239a17.379,17.379,0,0,1,7.7,1.723,17.9,17.9,0,0,1,6.46,4.976,24.167,24.167,0,0,1,4.211,7.943A34.185,34.185,0,0,1,93.37,25.5a35.094,35.094,0,0,1-1.292,9.809,23.178,23.178,0,0,1-3.78,7.7,17.081,17.081,0,0,1-6.077,5.024,16.245,16.245,0,0,1-7.7,1.771c-5.806,0-10.464-1.5-13.972-6.412V70.866Zm23.16-31.677q10.717,0,10.718-14.546a16.752,16.752,0,0,0-2.967-10.288,9.155,9.155,0,0,0-7.656-3.972,9.286,9.286,0,0,0-7.512,3.732,15.055,15.055,0,0,0-3.015,9.761Q61.023,39.19,71.455,39.189Z"/><path class="cls-3" d="M137.1,10.79a13.6,13.6,0,0,0-3.34-5.838,15.08,15.08,0,0,0-6.192-3.589A29.817,29.817,0,0,0,118.332.12a33.124,33.124,0,0,0-9.563,1.2,16.558,16.558,0,0,0-6.361,3.4,13.288,13.288,0,0,0-3.539,5.4,19.928,19.928,0,0,0-1.194,6.836h11.58a8.772,8.772,0,0,1,2.345-5.209c1.244-1.275,3.3-1.983,6.173-1.983a11.219,11.219,0,0,1,5.79,1.258,3.973,3.973,0,0,1,2.153,3.572,4,4,0,0,1-1.627,3.58q-1.628,1.1-6.316,1.766t-8.661,1.481a21.668,21.668,0,0,0-6.843,2.535,12.125,12.125,0,0,0-4.5,4.737,17.068,17.068,0,0,0-1.627,8.086,12.279,12.279,0,0,0,3.78,9.331q3.779,3.589,11.915,3.589a22.19,22.19,0,0,0,8.422-1.483,15.669,15.669,0,0,0,5.838-4.126,17.039,17.039,0,0,0,.766,4.057h11.172V18.686A27.527,27.527,0,0,0,137.1,10.79ZM124.519,34.524a10.849,10.849,0,0,1-5.933,5.455,11.993,11.993,0,0,1-4.45.813q-6.029,0-6.029-5.263a5.685,5.685,0,0,1,2.01-4.689q2.01-1.626,7.369-2.68,1.275-.247,2.326-.482h0s3.439-.737,5.7-1.351l-.078,4.225A8.955,8.955,0,0,1,124.519,34.524Z"/><path id="g-2" data-name="g" class="cls-3" d="M175.526,42.85a6,6,0,0,1-1.678,2.287,16.057,16.057,0,0,1-3.154,2.163,17.618,17.618,0,0,1-8.087,1.531,19.124,19.124,0,0,1-9.331-2.058,18.03,18.03,0,0,1-6.412-5.407,22.1,22.1,0,0,1-3.541-7.752,36.918,36.918,0,0,1-1.1-9,29.469,29.469,0,0,1,1.627-10,24.113,24.113,0,0,1,4.4-7.752A19.722,19.722,0,0,1,154.76,1.89,16.491,16.491,0,0,1,162.32.12c5.869,0,10.271,1.4,13.206,6.125V.5h12.1V48.927c0,3.572-.267,6.714-1.478,9.426a19.18,19.18,0,0,1-4.976,6.795,21.844,21.844,0,0,1-7.465,4.163,30.3,30.3,0,0,1-18.279.048,21.591,21.591,0,0,1-7.225-3.924,18.078,18.078,0,0,1-4.737-6.173,19,19,0,0,1-1.723-8.23h11.58a8.162,8.162,0,0,0,2.823,6.651,11.383,11.383,0,0,0,7.513,2.345,13.149,13.149,0,0,0,8.422-2.728,8.955,8.955,0,0,0,3.445-7.417ZM164.09,39.07a9.617,9.617,0,0,0,7.608-3.493q3.015-3.492,3.015-9.522,0-15.12-10.623-15.121T153.467,25.289q0,6.316,3.014,10.049A9.379,9.379,0,0,0,164.09,39.07Z"/><g id="s-2" data-name="s"><path class="cls-3" d="M278.976,28.495a8.861,8.861,0,0,0-3.4-4.067,25.6,25.6,0,0,0-6.747-2.823q-4.213-1.2-10.336-2.919a25.205,25.205,0,0,1-5.694-2.2,3.45,3.45,0,0,1-1.962-3.062,3.173,3.173,0,0,1,1.962-3.11,14.314,14.314,0,0,1,5.79-.909,9.854,9.854,0,0,1,5.981,1.59,6.02,6.02,0,0,1,2.2,3.648h12.092a14.965,14.965,0,0,0-5.052-10.3C270.682,1.6,265.737.173,258.975.173A34.507,34.507,0,0,0,249.6,1.247a18.812,18.812,0,0,0-6.22,2.905,10.449,10.449,0,0,0-3.254,4.2,11.975,11.975,0,0,0-1.1,5.069,16.554,16.554,0,0,0,.814,5.358,9.519,9.519,0,0,0,2.919,4.4,23.321,23.321,0,0,0,6.555,3.684,74.745,74.745,0,0,0,11.1,3.206,19.453,19.453,0,0,1,5.694,2.01,4.046,4.046,0,0,1,1.866,3.732,3.6,3.6,0,0,1-2.536,3.4,15.205,15.205,0,0,1-6.077,1.1,11.814,11.814,0,0,1-6.842-1.964,5.856,5.856,0,0,1-2.532-4.071H237.14a13.945,13.945,0,0,0,1.595,5.65,15.3,15.3,0,0,0,4.5,5.241,21.463,21.463,0,0,0,7.034,3.338,34.122,34.122,0,0,0,9.187,1.167q10.336,0,15.6-4.154a12.6,12.6,0,0,0,5.024-10.475A16.185,16.185,0,0,0,278.976,28.495Z"/></g><path id="e-4" data-name="e" class="cls-3" d="M202.461,28.04a13.479,13.479,0,0,0,3.389,8.517,10.167,10.167,0,0,0,7.751,3.158,10.652,10.652,0,0,0,5.476-1.388,6.294,6.294,0,0,0,3.053-3.876h12.6c-1.487,4.849-3.688,8.582-7.371,11.2a22.165,22.165,0,0,1-13.182,3.924c-13.571,0-23.261-8.549-23.261-25.648a29.518,29.518,0,0,1,1.551-9.857,21.206,21.206,0,0,1,4.507-7.56A19.489,19.489,0,0,1,204.2,1.675,23.567,23.567,0,0,1,213.408,0c7.366,0,12.461,2.33,16.241,6.986s5.527,11.675,5.527,21.054Zm20.348-7.848a12.976,12.976,0,0,0-.921-4.546,9.522,9.522,0,0,0-2.181-3.254,8.706,8.706,0,0,0-3.1-1.914,10.62,10.62,0,0,0-3.586-.622A10.109,10.109,0,0,0,206,12.585a11.562,11.562,0,0,0-3.15,7.608Z"/></g></svg>