<?xml version="1.0" encoding="UTF-8"?>
<svg width="1143px" height="162px" viewBox="0 0 1143 162" version="1.1" xmlns="http://www.w3.org/2000/svg" xmlns:xlink="http://www.w3.org/1999/xlink">
  <title>:megorei</title>
  <desc>Logo megorei Software GmbH</desc>
  <g id="logo">
    <path d="M0.972,34.547 C0.972,15.57 16.356,0.187 35.333,0.187 C54.31,0.187 69.694,15.57 69.694,34.547 C69.694,53.524 54.31,68.908 35.333,68.908 C16.356,68.908 0.972,53.524 0.972,34.547" id="Fill-1" fill="#0095C6"></path>
    <path d="M0.972,126.799 C0.972,107.821 16.356,92.438 35.333,92.438 C54.31,92.438 69.694,107.821 69.694,126.799 C69.694,145.776 54.31,161.16 35.333,161.16 C16.356,161.16 0.972,145.776 0.972,126.799" id="Fill-2" fill="#0095C6"></path>
    <path d="M317.808,154.917 L317.808,52.74 C317.808,18.98 301.974,3.145 273.292,3.145 C248.197,3.145 231.765,18.382 224.893,33.022 C221.308,18.681 210.253,3.145 183.962,3.145 C161.854,3.145 143.928,14.797 134.965,33.022 L134.368,33.022 C135.862,24.357 136.459,13.303 136.459,6.432 L100.309,6.432 L100.309,154.917 L138.55,154.917 L138.55,83.811 C138.55,56.026 154.982,35.113 172.61,35.113 C187.249,35.113 190.237,46.167 190.237,60.806 L190.237,154.917 L227.88,154.917 L227.88,83.811 C227.88,54.831 245.209,35.113 261.939,35.113 C275.981,35.113 279.567,44.972 279.567,60.806 L279.567,154.917 L317.808,154.917" id="Fill-3" fill="#1A1918"></path>
    <path d="M480.607,69.471 C480.607,32.723 461.486,3.145 418.165,3.145 C373.65,3.145 348.554,36.607 348.554,82.019 C348.554,134.302 374.845,157.905 422.049,157.905 C440.572,157.905 459.394,154.618 475.229,148.344 L471.644,118.767 C458.797,124.742 442.963,128.028 428.323,128.028 C400.837,128.028 387.094,114.584 387.392,86.799 L479.411,86.799 C480.308,80.525 480.607,74.55 480.607,69.471 Z M442.664,60.806 L387.99,60.806 C390.082,42.881 401.135,31.229 416.97,31.229 C433.103,31.229 443.261,42.283 442.664,60.806 L442.664,60.806 Z" id="Fill-4" fill="#1A1918"></path>
    <path d="M640.306,146.426 L640.306,73.814 L602.536,73.814 L602.536,121.539 C597.266,123.295 590.825,124.174 584.384,124.174 C559.496,124.174 542.514,108.07 542.514,78.791 C542.514,48.634 562.132,31.652 588.775,31.652 C603.415,31.652 616.883,34.58 630.352,40.143 L637.379,7.643 C620.982,2.373 604.293,0.03 587.897,0.03 C534.023,0.03 502.402,36.337 502.402,81.72 C502.402,132.079 536.073,157.552 581.163,157.552 C602.829,157.552 622.154,153.453 640.306,146.426" id="Fill-5" fill="#1A1918"></path>
    <path d="M715.162,110.098 C711.154,102.572 709.15,92.305 709.15,79.33 C709.15,48.856 725.88,35.71 742.91,35.71 C765.317,35.71 775.475,51.246 775.475,79.927 C775.475,92.657 772.922,102.729 768.558,110.119 L809.28,110.098 C812.938,100.387 814.912,89.525 814.912,77.836 C814.912,26.748 787.725,3.444 745.598,3.444 C700.485,3.444 669.713,36.906 669.713,83.214 C669.713,93.275 670.697,102.211 672.581,110.087 L715.162,110.098 M672.581,110.098 C680.599,143.604 704.915,157.905 739.026,157.905 C772.377,157.905 798.35,139.122 809.28,110.101 L768.558,110.098 C762.577,120.247 753.194,125.34 742.312,125.34 C729.617,125.34 720.567,120.217 715.162,110.085 L672.581,110.098" id="Fill-7" fill="#1A1918"></path>
    <path d="M926.87,3.145 C901.177,1.054 886.835,17.486 879.665,36.308 L879.068,36.308 C880.86,25.851 881.757,13.901 881.757,6.432 L845.606,6.432 L845.606,154.917 L883.848,154.917 L883.848,94.268 C883.848,53.039 897.591,35.113 925.077,40.789 L926.87,3.145" id="Fill-8" fill="#1A1918"></path>
    <path d="M1071.12,69.471 C1071.12,32.723 1051.999,3.145 1008.678,3.145 C964.163,3.145 939.067,36.607 939.067,82.019 C939.067,134.302 965.358,157.905 1012.562,157.905 C1031.086,157.905 1049.908,154.618 1065.742,148.344 L1062.157,118.767 C1049.31,124.742 1033.476,128.028 1018.837,128.028 C991.35,128.028 977.607,114.584 977.906,86.799 L1069.925,86.799 C1070.821,80.525 1071.12,74.55 1071.12,69.471 Z M1033.177,60.806 L978.503,60.806 C980.595,42.881 991.65,31.229 1007.483,31.229 C1023.617,31.229 1033.775,42.283 1033.177,60.806 L1033.177,60.806 Z" id="Fill-9" fill="#1A1918"></path>
    <polygon id="Fill-10" fill="#1A1918" points="1105.213 154.917 1142.983 154.917 1142.983 2.666 1105.213 2.666"></polygon>
  </g>
</svg>
