<?xml version="1.0" encoding="utf-8"?>
<!-- Generator: Adobe Illustrator 21.1.0, SVG Export Plug-In . SVG Version: 6.00 Build 0)  -->
<svg version="1.1" id="Layer_1" xmlns="http://www.w3.org/2000/svg" xmlns:xlink="http://www.w3.org/1999/xlink" x="0px" y="0px"
	 viewBox="0 0 1000 280" style="enable-background:new 0 0 1000 280;" xml:space="preserve">
<style type="text/css">
	.st0{fill:#127CAB;enable-background:new    ;}
	.st1{fill:#032D49;}
</style>
<path class="st0" d="M243.4,151.3c-0.6-0.3-1.6-0.3-2.2-0.3c-1.2,0-2.2,0.3-3.1,0.6c-0.9,0.6-1.9,1.2-2.8,2.2l-4,1.2
	c-2.5,0.6-5-0.3-6.2-2.5c-0.3-0.3-0.3-0.6-0.6-1.2c-0.3-0.6-0.3-0.9-0.3-1.6c0-1.6,0.6-2.8,1.6-3.7c0.6-0.6,1.2-0.9,2.2-1.2
	c0,0,13.1-4,14.6-5.6s3.7-5,4-8.1c1.2,0,2.2-1.2,2.2-2.5c0-1.2-0.9-2.5-2.2-2.5l0,0c-0.9-10.9-21.8-23.7-23.4-24.3
	c0.6-1.2,0.9-2.5,0.9-4c0-4-2.8-7.5-5.9-7.5c-3.4,0-5.9,3.4-5.9,7.5c0,0.6,0,1.2,0.3,1.9c-1.2,0-2.8,0.3-4,0.6c0-0.3,0-0.6,0-1.2
	c0-3.4-2.5-6.2-5.6-6.2c-3.1,0-5.6,2.8-5.6,6.2c0,0.3,0,0.9,0,1.2c0.3,1.2,0.9,2.5,1.6,3.4l0.3,0.3c0,0,0,1.2,0.3,1.9
	c0.3,2.8,0,5.3-0.9,8.1c-1.6,3.7-4.7,7.5-8.7,10.6c-5.3,4-12.1,7.2-19.9,9c0,0-0.3,0-0.6,0c-0.9,0.3-2.2,0.3-3.1,0.6l0,0
	c0.3-0.6,0.3-1.2,0.6-1.9c0.3-0.6,0.3-1.6,0.6-2.2c0.9-4,1.2-8.1,1.2-12.1c0-10.6-2.8-20.2-7.8-29c-10.6-17.8-30.5-29.6-52.9-28.3
	C79.6,62.8,56.2,86.5,55,115.2c-0.9,17.1,5.9,32.7,17.1,43.6l0.3,0.3c2.2,2.5,5.3,3.7,8.7,3.7c5.6,0,10.3-3.7,11.8-8.7l6.9-33.3
	c0,0,0.3-2.2,0.9-3.1c0.9-1.6,2.5-2.5,4.4-2.5c2.8,0,5,1.9,5.3,4.7c0,0.3-0.9,35.5-2.5,42c-1.6,6.5-1.6,7.5-1.6,11.2
	c0,0.6,0,0.9,0,1.6l0,0c0.9,23.7,20.2,42.4,43.9,42.4c4,0,7.8-0.6,11.5-1.6c0.6,1.9,2.5,3.1,4.4,3.1c2.2,0,4.7-0.9,4.7-0.9
	c3.1-0.9,6.5-1.2,10.3-1.2c3.4,0,11.5,1.6,12.1,1.9c0.9-0.3,1.6-1.2,1.6-2.2c0-0.3,0-0.6,0-0.9l-7.2-4c-3.1-1.9-4.4-5.9-2.8-9.3
	l3.4-6.9c0,0,3.4-6.9,4.4-10.9c1.2-4.7,5-8.1,10-8.7l9.3-0.9l12.8-1.2l0,0l3.1-2.5l8.4-6.2l0,0c1.6,0.9,3.4,1.6,5.3,1.2
	c3.1-0.3,5.9-2.8,6.5-5.9C249.6,156,247.1,152.2,243.4,151.3z"/>
<g>
	<path class="st1" d="M393.8,98.1c6.7,4,11.9,9.7,15.6,17.1c3.7,7.3,5.5,15.8,5.5,25.4c0,9.5-1.8,17.8-5.4,24.9
		c-3.6,7.2-8.7,12.7-15.3,16.7c-6.6,4-14.3,6-23,6c-6.5,0-12.3-1.3-17.4-3.8c-5.1-2.5-9.4-6.2-12.9-10.9V221h-26.9V92.9h26.9v13.8
		c3.4-4.8,7.6-8.4,12.7-10.9c5.1-2.5,10.8-3.8,17.1-3.8C379.4,92,387.1,94,393.8,98.1z M381.1,158.4c4.3-4.8,6.5-11.1,6.5-18.8
		c0-7.6-2.2-13.8-6.5-18.6c-4.3-4.8-9.9-7.3-16.8-7.3c-6.9,0-12.5,2.4-16.9,7.3c-4.4,4.8-6.6,11.1-6.6,18.6c0,7.8,2.2,14.1,6.6,18.9
		c4.4,4.8,10,7.2,16.9,7.2C371.2,165.7,376.8,163.3,381.1,158.4z"/>
	<path class="st1" d="M507.7,105.1c7.9,8.8,11.8,20.9,11.8,36.6c0,2.8-0.1,5-0.2,6.5h-67.5c1.5,5.9,4.4,10.6,8.8,13.9
		c4.3,3.3,9.5,5,15.6,5c4.4,0,8.7-0.8,12.8-2.5c4.1-1.7,7.8-4.2,11-7.4l14.2,14.3c-4.8,5.4-10.6,9.5-17.4,12.3
		c-6.8,2.9-14.4,4.3-22.8,4.3c-9.9,0-18.6-2-26-6c-7.4-4-13.1-9.6-17.2-16.8c-4-7.2-6-15.6-6-25c0-9.6,2-18,6.1-25.3
		c4.1-7.3,9.8-12.9,17.1-17c7.4-4,15.8-6,25.2-6C488.3,92,499.9,96.4,507.7,105.1z M494.2,132.3c-0.2-6.2-2.2-11.1-6-14.9
		c-3.7-3.7-8.7-5.6-14.9-5.6c-5.8,0-10.7,1.8-14.6,5.5c-3.9,3.7-6.4,8.7-7.4,15H494.2z"/>
	<path class="st1" d="M617.8,101.6c6.2,6.5,9.4,15.3,9.4,26.2V187h-27v-51.3c0-6-1.7-10.6-5-14.1c-3.3-3.4-7.8-5.2-13.6-5.2
		c-6.6,0.1-11.9,2.4-15.8,6.9c-3.8,4.5-5.8,10.2-5.8,17.2V187h-27V92.9h27v16.4c6.5-11.4,17.4-17.3,32.5-17.5
		C603.2,91.8,611.6,95.1,617.8,101.6z"/>
	<path class="st1" d="M694.6,113.8c-5-1.6-9.5-2.4-13.5-2.4c-3.3,0-5.9,0.6-7.9,1.8c-2,1.2-3,2.9-3,5.2c0,2.6,1.3,4.6,4,6
		c2.7,1.4,7.1,3,13.1,4.7c6.7,2,12.1,3.9,16.5,5.9c4.3,1.9,8,4.8,11.2,8.6c3.1,3.8,4.7,8.8,4.7,15c0,9.3-3.6,16.6-10.8,21.8
		c-7.2,5.2-16.4,7.8-27.6,7.8c-7.7,0-15.1-1.1-22.2-3.4c-7.1-2.3-13.3-5.5-18.5-9.7l8.8-18.2c4.8,3.7,10.1,6.6,16,8.7
		c5.9,2,11.5,3.1,16.7,3.1c3.6,0,6.5-0.6,8.7-1.8c2.2-1.2,3.2-3.1,3.2-5.5c0-2.7-1.4-4.8-4.1-6.3c-2.7-1.5-7.1-3.1-13.2-4.9
		c-6.4-1.9-11.8-3.7-16-5.6c-4.3-1.9-7.9-4.7-10.9-8.5c-3-3.8-4.5-8.7-4.5-14.8c0-9.3,3.5-16.6,10.5-21.7c7-5.1,15.9-7.7,26.6-7.7
		c6.4,0,12.8,0.9,19.2,2.7c6.4,1.8,12.2,4.4,17.5,7.8l-9.3,18.4C704.7,117.6,699.6,115.4,694.6,113.8z"/>
	<path class="st1" d="M812.8,105.1c7.9,8.8,11.8,20.9,11.8,36.6c0,2.8-0.1,5-0.2,6.5h-67.5c1.5,5.9,4.4,10.6,8.8,13.9
		c4.3,3.3,9.5,5,15.6,5c4.4,0,8.7-0.8,12.8-2.5c4.1-1.7,7.8-4.2,11-7.4l14.2,14.3c-4.8,5.4-10.6,9.5-17.4,12.3
		c-6.8,2.9-14.4,4.3-22.8,4.3c-9.9,0-18.6-2-26-6c-7.4-4-13.1-9.6-17.2-16.8c-4-7.2-6-15.6-6-25c0-9.6,2-18,6.1-25.3
		c4.1-7.3,9.8-12.9,17.1-17c7.4-4,15.8-6,25.2-6C793.4,92,804.9,96.4,812.8,105.1z M799.2,132.3c-0.2-6.2-2.2-11.1-6-14.9
		c-3.7-3.7-8.7-5.6-14.9-5.6c-5.8,0-10.7,1.8-14.6,5.5c-3.9,3.7-6.4,8.7-7.4,15H799.2z"/>
	<path class="st1" d="M911.1,98c7.6,4,13.6,9.6,17.8,16.8c4.2,7.2,6.3,15.6,6.3,25.2c0,9.5-2.1,17.8-6.3,25.1
		c-4.2,7.3-10.1,13-17.8,17c-7.6,4-16.4,6-26.3,6c-10,0-18.9-2-26.5-6c-7.6-4-13.6-9.7-17.8-17c-4.2-7.3-6.3-15.7-6.3-25.1
		c0-9.6,2.1-18,6.3-25.2c4.2-7.2,10.1-12.8,17.8-16.8c7.6-4,16.5-5.9,26.5-5.9C894.7,92,903.5,94,911.1,98z M867.7,121.6
		c-4.4,4.8-6.6,11-6.6,18.7c0,7.7,2.2,13.9,6.6,18.7c4.4,4.8,10.1,7.2,17.1,7.2c6.9,0,12.5-2.4,16.9-7.2c4.4-4.8,6.6-11,6.6-18.7
		c0-7.7-2.2-13.9-6.6-18.7c-4.4-4.8-10-7.2-16.9-7.2C877.8,114.4,872.1,116.8,867.7,121.6z"/>
</g>
</svg>
