<?xml version="1.0" encoding="UTF-8"?>
<!DOCTYPE svg PUBLIC "-//W3C//DTD SVG 1.1//EN" "http://www.w3.org/Graphics/SVG/1.1/DTD/svg11.dtd">
<svg version="1.1" xmlns="http://www.w3.org/2000/svg" xmlns:xlink="http://www.w3.org/1999/xlink" x="0" y="0" width="558.2" height="133.7" viewBox="0, 0, 558.2, 133.7">
  <g id="Ebene_1" transform="translate(-19.8, -576.3)">
    <g id="railslove_logo_cmyk">
      <path d="M127.6,691.3 C127.6,700.3 116.1,710 102.6,710 C96.4,710 93.4,707.5 89.3,698.7 C78.9,676.2 74.7,668.3 67.1,665.8 C64.1,677.8 61.8,691.8 61.5,697.3 C60.2,699.1 57.4,700.3 53.3,700.3 C43.9,700.3 37.7,690.6 37.7,684.2 C37.7,679.8 38.8,673.2 45.9,652.5 C50.7,638.4 56.3,622.1 62.2,602.7 C48.6,604.3 36.2,616.3 30.7,627.3 C29.7,627.8 28.2,628.1 26.9,628.1 C22.5,628.1 19.8,624.3 19.8,618.4 C19.8,601.6 47.9,576.8 82.9,576.8 C111.2,576.8 125.3,590.6 125.3,610 C125.3,626.3 115.6,640.7 97,658 C100.4,661.3 107,669.8 112.8,681.3 C114.8,685.2 116.4,686.2 118.9,686.2 C120.4,686.2 123.7,685.7 125.6,685.2 C126.9,686.8 127.6,689.3 127.6,691.3 z M98.9,618.8 C98.9,610.1 93.8,603 79.7,602 C79.4,612.4 76.4,629.1 71.3,650.1 C72.9,649.8 74.8,649.6 76.7,649.6 C79.8,649.6 82.9,650.1 85.2,650.7 C95.7,636.7 98.9,628.7 98.9,618.8 z" fill="#4FAF4D"/>
      <path d="M136,698.3 C126.6,698.3 119.7,690.6 119.7,675.6 C119.7,651 140.1,625.2 156.5,625.2 C158.8,625.2 160,625.5 160.8,626.4 L161.3,616.9 C162.6,615.4 164.8,614.8 167.1,614.8 C178.3,614.8 184.4,622.4 184.4,628.1 C184.4,630.2 183.9,634.3 182.6,638.9 C176.8,659.6 174.7,670 174.7,674.2 C174.7,677.5 175.4,678 176.7,678 C180,678 188.5,671.8 199,657 C202.5,657 205.1,659.1 205.1,662.1 C205.1,672.8 177.8,699.2 166,699.2 C158.8,699.2 154.2,696.2 154.2,685.7 C154.2,683.9 154.4,681.8 154.7,679.3 C149.3,694.2 141.8,698.3 136,698.3 z M160,637 C151.8,642.3 143.9,655.9 143.9,668.5 C143.9,674.6 145.9,675.2 148.2,675.2 C150.5,675.2 152.8,673.6 154.8,671.1 L160,637 z" fill="#4FAF4D"/>
      <path d="M194.7,652.8 C194.7,643.1 209.3,625.9 219.5,625.9 C227.1,625.9 227.7,630 227.7,636.4 C227.7,640.7 224.9,647.6 221.9,654.5 C217.3,665.8 215.2,671.1 215.2,674.9 C215.2,676.7 216,677.4 217.5,677.4 C219.8,677.4 227.2,672.1 238.2,656.5 C241.3,656.5 244.6,659.1 244.6,662.4 C244.6,672.8 218.5,700.5 203.4,700.5 C193.7,700.5 190.4,696.2 190.4,687.2 C190.4,680 192.2,673.2 196.3,663 C195,659.9 194.7,656.1 194.7,652.8 z M225.6,582.5 C232.2,582.5 239.6,589.7 239.6,594.8 C239.6,598.7 236.5,605.2 228.6,614.8 C222.2,614.8 217.6,610 217.6,600.5 C217.5,587.2 220.3,582.5 225.6,582.5 z" fill="#4FAF4D"/>
      <path d="M243.5,613.5 C246.5,591.3 258.1,578 271.1,578 C278.2,578 282.6,581.3 282.6,589.7 C282.6,596.9 279.3,605 267,628.1 C262.6,644 254.8,672.6 254.8,676.7 C254.8,678.5 255.6,679.2 257.1,679.2 C262.2,679.2 271.9,669.8 280.4,656.5 C283.5,656.5 286.6,658.8 286.6,662.1 C286.6,674.6 260,700.4 243.4,700.4 C233.9,700.4 230.4,696.3 230.4,687.7 C230.4,676.7 235.7,657.6 237,650.7 C239,640.2 242,624.7 243.5,613.5 z" fill="#4FAF4D"/>
      <path d="M388.3,588.7 C388.3,594.3 385.2,601.5 373.3,611.2 C368.9,627.1 357.9,672.7 357.9,676.8 C357.9,678.6 358.7,679.3 360.2,679.3 C365.3,679.3 375,669.9 383.5,656.6 C386.6,656.6 389.7,658.9 389.7,662.2 C389.7,674.7 363.1,700.5 346.5,700.5 C337,700.5 333.5,696.4 333.5,687.8 C333.5,676.8 338.6,657.7 340.1,650.8 C342.6,639.1 344.9,626.5 347.3,613.5 C347.5,612.5 347.6,611.4 348,610.2 C339.5,608.9 332.1,608.2 329.1,608.2 C323,608.2 319.4,612.3 319.1,620.2 C328.6,620.2 334.1,622.2 334.1,627.1 C334.1,633.3 327.4,642.7 321.1,642.7 C317.6,642.7 314.2,640.2 311.4,636.6 C312.4,639.2 313.7,642 315.2,645 C322.1,659 325.1,668.7 325.1,675.7 C325.1,692.8 312.3,701.7 296,701.7 C283.2,701.7 271.2,693 271.2,676.7 C271.2,667 273.8,651.1 281.9,651.1 C287.7,651.1 292.3,658.5 292.3,662.6 C292.3,666.1 290.8,668.5 288,671.6 C289.3,678.8 294.9,683.8 298.7,683.8 C300.3,683.8 302.2,682.8 302.2,680 C302.2,671.6 292.3,648.5 292.3,638.3 C292.3,631.4 295.9,625.5 304.8,621.7 C304.5,620.1 304.3,618.3 304.3,616.6 C304.3,600.3 314.5,588.8 332.1,588.8 C337.5,588.8 341.8,590 352.8,594.4 C357.2,583.7 363.6,576.3 372.4,576.3 C379.3,576.4 388.3,582.2 388.3,588.7 z" fill="#4FAF4D"/>
      <path d="M438.7,644.3 C438.7,652.2 437.1,658.6 433.6,667.6 C434.1,668.1 435.2,668.7 436.9,668.7 C441.7,668.7 446.4,664.9 451.9,656.2 C454.9,656.2 458.3,658.7 458.3,662.1 C458.3,669 447.3,684.4 433.3,684.4 C430.3,684.4 428.5,683.9 426.7,682.8 C418.8,693.5 410.1,699.4 398.6,699.4 C386.9,699.4 377.7,691.7 377.7,675.6 C377.7,648.3 395.8,623 413.2,623 C417.5,623 422.7,624.8 422.9,630.2 C424.5,628.6 426,627.9 428.7,627.9 C435.4,628 438.7,636.9 438.7,644.3 z M407,679.9 C410.9,679.9 414.9,676.1 417.8,668.7 C416.5,663.6 416,658.8 416,654.4 C416,648.8 417.2,640.1 419.6,635.3 C409.4,640.1 401,656 401,669.5 C401,677.6 404,679.9 407,679.9 z" fill="#4FAF4D"/>
      <path d="M466.2,699.8 C453.7,699.8 444.5,693.1 444.5,676.6 C444.5,668.4 447.8,657.7 454.4,648.3 C450.3,646.3 449.6,642.7 449.6,639.8 C449.8,631.6 460.1,622.7 473.1,622.7 C479.5,622.7 485.1,625.3 485.1,631.9 C485.1,632.6 485.1,633.2 484.9,633.9 C474.4,643.8 468,658.7 468,670.7 C468,677.1 469.6,679.4 473.3,679.4 C480,679.4 490.7,661.3 490.7,638 C490.7,635 490.2,628.8 489.7,625.3 C491.2,623.3 494.1,621.8 498.1,621.8 C508.3,621.8 511.9,629.2 511.9,637.4 C511.9,672.9 487.6,699.8 466.2,699.8 z" fill="#4FAF4D"/>
      <path d="M505.8,672 C505.8,647.2 526,621.9 541.9,621.9 C553.2,621.9 559.5,627.3 559.5,638.8 C559.5,652.6 551.4,663.3 528.9,668.4 C528.9,675.8 530.4,679.9 536.8,679.9 C548,679.9 562.4,670.4 571.8,656.1 C575.7,656.3 578,658.9 578,661.5 C578,673.7 550.6,699.8 529.2,699.8 C513.2,699.8 505.8,689.8 505.8,672 z M537.8,639.2 C535.5,639.2 531.1,644.8 529.9,656.3 C539.1,654.7 541.1,649.6 541.1,644.6 C541.1,641.1 539.8,639.2 537.8,639.2 z" fill="#4FAF4D"/>
    </g>
  </g>
</svg>
