<?xml version="1.0" encoding="utf-8"?>
<!-- Generator: Adobe Illustrator 19.1.0, SVG Export Plug-In . SVG Version: 6.00 Build 0)  -->
<svg version="1.1" id="Layer_1" xmlns="http://www.w3.org/2000/svg" xmlns:xlink="http://www.w3.org/1999/xlink" x="0px" y="0px"
	 viewBox="-202 405.9 189.5 30" style="enable-background:new -202 405.9 189.5 30;" xml:space="preserve">
<style type="text/css">
	.st0{fill:#007CC2;}
</style>
<g>
	<path class="st0" d="M-12.5,420.7c0-2.9-1.4-4.3-4.3-4.3c-0.8,0-1.5,0.2-2.2,0.5c-0.7,0.3-1.2,0.7-1.5,1.3h-0.1l-0.4-1.6h-2v11.9
		h2.5v-5.9c0-1.5,0.2-2.5,0.7-3.2c0.5-0.6,1.3-0.9,2.3-0.9c0.8,0,1.4,0.2,1.8,0.7c0.4,0.5,0.6,1.1,0.6,2v7.3h2.5L-12.5,420.7
		L-12.5,420.7z M-33.7,419.5c0.5-0.7,1.2-1.1,2.3-1.1c2,0,3,1.4,3,4.1c0,2.7-1,4.1-3,4.1c-2,0-3-1.4-3-4.1
		C-34.4,421.2-34.2,420.2-33.7,419.5 M-27.3,418.1c-1-1.1-2.4-1.7-4.1-1.7c-1.8,0-3.2,0.5-4.2,1.6c-1,1.1-1.5,2.6-1.5,4.5
		c0,1.2,0.2,2.3,0.7,3.3c0.5,0.9,1.1,1.7,2,2.2c0.9,0.5,1.8,0.8,2.9,0.8c1.8,0,3.2-0.5,4.2-1.6c1-1.1,1.5-2.6,1.5-4.5
		C-25.8,420.7-26.3,419.2-27.3,418.1 M-42.2,414.5c0.2,0.2,0.6,0.4,1.1,0.4c0.4,0,0.8-0.1,1-0.4c0.2-0.2,0.4-0.6,0.4-1
		c0-0.4-0.1-0.8-0.4-1c-0.2-0.2-0.6-0.4-1-0.4c-0.5,0-0.8,0.1-1.1,0.4c-0.2,0.2-0.4,0.6-0.4,1C-42.5,413.9-42.4,414.2-42.2,414.5
		 M-39.9,416.6h-2.5v11.9h2.5V416.6z M-47.7,426.2c-0.3-0.3-0.5-0.7-0.5-1.3v-6.4h3.4v-1.9h-3.4V414h-1.6l-0.9,2.5l-1.7,0.9v1.1h1.6
		v6.4c0,2.5,1.2,3.8,3.6,3.8c0.5,0,0.9,0,1.4-0.1c0.4-0.1,0.8-0.2,1.1-0.3v-1.9c-0.6,0.2-1.2,0.3-1.8,0.3
		C-47,426.7-47.4,426.5-47.7,426.2 M-61.4,426.3c-0.3-0.3-0.5-0.7-0.5-1.2c0-0.7,0.3-1.3,0.8-1.6c0.5-0.4,1.4-0.6,2.6-0.6l1.5-0.1v1
		c0,0.9-0.3,1.6-0.8,2.2c-0.6,0.5-1.3,0.8-2.2,0.8C-60.6,426.8-61.1,426.6-61.4,426.3 M-54.4,428.5v-8c0-1.4-0.4-2.4-1.2-3.1
		c-0.8-0.7-1.9-1-3.4-1c-0.7,0-1.4,0.1-2.2,0.3c-0.8,0.2-1.5,0.4-2.1,0.8l0.8,1.8c0.5-0.2,1.1-0.5,1.6-0.6c0.6-0.2,1.1-0.3,1.7-0.3
		c0.7,0,1.3,0.2,1.6,0.6s0.5,0.9,0.5,1.7v0.6l-2.1,0.1c-1.9,0.1-3.2,0.4-4.1,1c-0.9,0.6-1.4,1.5-1.4,2.8c0,1.2,0.3,2,1,2.7
		c0.7,0.6,1.6,0.9,2.7,0.9c0.9,0,1.7-0.1,2.2-0.4c0.6-0.3,1.2-0.8,1.7-1.5h0.1l0.5,1.7L-54.4,428.5L-54.4,428.5L-54.4,428.5z
		 M-67.2,411.8h-2.5v16.7h2.5V411.8z M-72.7,423.6c-0.2-0.4-0.5-0.8-1-1.1c-0.4-0.3-1.2-0.7-2.1-1c-1.2-0.5-1.9-0.8-2.3-1.1
		c-0.3-0.3-0.5-0.6-0.5-0.9c0-0.8,0.7-1.1,2-1.1c0.9,0,1.9,0.3,3.2,0.8l0.8-1.9c-1.2-0.6-2.6-0.8-4-0.8c-1.4,0-2.5,0.3-3.3,0.8
		c-0.8,0.6-1.2,1.4-1.2,2.4c0,0.8,0.2,1.5,0.7,2.1c0.5,0.5,1.4,1.1,2.8,1.6c0.7,0.3,1.2,0.5,1.6,0.7c0.4,0.2,0.7,0.4,0.8,0.6
		c0.2,0.2,0.3,0.5,0.3,0.8c0,0.9-0.8,1.4-2.3,1.4c-1.2,0-2.5-0.3-3.9-1v2.2c1,0.5,2.2,0.7,3.8,0.7c1.6,0,2.8-0.3,3.6-0.9
		c0.8-0.6,1.3-1.5,1.3-2.7C-72.4,424.5-72.5,424-72.7,423.6 M-84,420.7c0-2.9-1.4-4.3-4.3-4.3c-0.8,0-1.5,0.2-2.2,0.5
		c-0.7,0.3-1.2,0.7-1.5,1.3h-0.1l-0.4-1.6h-2v11.9h2.5v-5.9c0-1.5,0.2-2.5,0.7-3.2c0.5-0.6,1.3-0.9,2.3-0.9c0.8,0,1.4,0.2,1.8,0.7
		c0.4,0.5,0.6,1.1,0.6,2v7.3h2.5L-84,420.7L-84,420.7z M-104.8,426.3c-0.3-0.3-0.5-0.7-0.5-1.2c0-0.7,0.3-1.3,0.8-1.6
		c0.5-0.4,1.4-0.6,2.6-0.6l1.5-0.1v1c0,0.9-0.3,1.6-0.8,2.2c-0.6,0.5-1.3,0.8-2.2,0.8C-104.1,426.8-104.5,426.6-104.8,426.3
		 M-97.9,428.5v-8c0-1.4-0.4-2.4-1.2-3.1c-0.8-0.7-1.9-1-3.4-1c-0.7,0-1.4,0.1-2.2,0.3c-0.8,0.2-1.5,0.4-2.1,0.8l0.8,1.8
		c0.5-0.2,1.1-0.5,1.6-0.6c0.6-0.2,1.1-0.3,1.7-0.3c0.7,0,1.3,0.2,1.6,0.6c0.4,0.4,0.5,0.9,0.5,1.7v0.6l-2,0.1
		c-1.9,0.1-3.2,0.4-4.2,1c-0.9,0.6-1.4,1.5-1.4,2.8c0,1.2,0.3,2,1,2.7c0.7,0.6,1.6,0.9,2.7,0.9c0.9,0,1.7-0.1,2.2-0.4
		c0.6-0.3,1.2-0.8,1.7-1.5h0.1l0.5,1.7L-97.9,428.5L-97.9,428.5z M-112.4,417c-0.6,0.4-1.1,1-1.5,1.7h-0.1l-0.3-2.1h-2v11.9h2.5
		v-6.2c0-1.1,0.3-1.9,0.9-2.6c0.6-0.7,1.4-1,2.4-1c0.4,0,0.8,0,1.1,0.1l0.2-2.3c-0.3-0.1-0.7-0.1-1.3-0.1
		C-111.1,416.4-111.8,416.6-112.4,417 M-121.7,426.2c-0.3-0.3-0.5-0.7-0.5-1.3v-6.4h3.4v-1.9h-3.4V414h-1.6l-0.9,2.5l-1.7,0.9v1.1
		h1.6v6.4c0,2.5,1.2,3.8,3.6,3.8c0.5,0,0.9,0,1.4-0.1c0.4-0.1,0.8-0.2,1.1-0.3v-1.9c-0.6,0.2-1.2,0.3-1.8,0.3
		C-121,426.7-121.4,426.5-121.7,426.2 M-131.1,419.5c0.5,0.7,0.7,1.7,0.7,3c0,1.3-0.2,2.3-0.7,3.1c-0.5,0.7-1.1,1.1-2,1.1
		c-1,0-1.8-0.3-2.2-1c-0.5-0.6-0.7-1.7-0.7-3.1v-0.4c0-1.3,0.2-2.2,0.7-2.8c0.5-0.6,1.2-0.9,2.2-0.9
		C-132.3,418.5-131.6,418.8-131.1,419.5 M-129.1,427.1c0.8-1.1,1.3-2.6,1.3-4.5c0-1.9-0.4-3.4-1.2-4.5c-0.8-1.1-2-1.6-3.5-1.6
		c-1.6,0-2.8,0.6-3.5,1.8h-0.1c-0.2-0.8-0.3-1.4-0.4-1.6h-2v17.1h2.5v-4.9c0-0.2-0.1-0.8-0.2-1.8h0.2c0.8,1.1,2,1.6,3.5,1.6
		C-131.1,428.7-130,428.2-129.1,427.1 M-149.4,419.5c0.5-0.7,1.2-1.1,2.3-1.1c2,0,3,1.4,3,4.1c0,2.7-1,4.1-3,4.1c-2,0-3-1.4-3-4.1
		C-150.1,421.2-149.9,420.2-149.4,419.5 M-143,418.1c-1-1.1-2.4-1.7-4.1-1.7c-1.8,0-3.2,0.5-4.2,1.6c-1,1.1-1.5,2.6-1.5,4.5
		c0,1.2,0.2,2.3,0.7,3.3c0.5,0.9,1.1,1.7,2,2.2c0.9,0.5,1.8,0.8,2.9,0.8c1.8,0,3.2-0.5,4.2-1.6c1-1.1,1.5-2.6,1.5-4.5
		C-141.5,420.7-142,419.2-143,418.1 M-157.1,415h4.6v-2.2h-11.8v2.2h4.6v13.5h2.6V415z"/>
</g>
<g>
	<path class="st0" d="M-178.7,424.1c-1.1,1.9-2.3,3.5-3.4,4.7c-1.1-0.5-2.1-1.1-3.2-1.7c-1.4-0.9-2.8-1.9-4-3.1
		c-1.2-1.2-2.3-2.5-3.2-4c-0.7-1.2-1.2-2.4-1.5-3.8c1.2-0.5,2.4-0.9,3.6-1.3c1.7-0.4,3.4-0.7,5.1-0.6c1.7,0,3.4,0.4,5.1,1
		c-1.6-0.8-3.3-1.3-5-1.5c-1.8-0.2-3.6-0.1-5.3,0.2c-1.8,0.3-3.5,0.8-5.1,1.4c-1,0.4-1.9,0.8-2.9,1.3c-0.4-2-0.2-3.4,0.2-4.1
		c0.8-1.4,4.9-3.4,11.3-3.4c6.4,0,10.5,2.1,11.3,3.4C-175,414.1-175.4,418.5-178.7,424.1 M-198.2,418.5c1-0.6,2-1.2,3-1.7
		c0.4-0.2,0.7-0.3,1.1-0.5c0.2,1.4,0.6,2.7,1.2,3.9c0.7,1.6,1.8,3.1,2.9,4.4c1.2,1.3,2.5,2.5,3.9,3.6c0.9,0.7,1.8,1.3,2.7,1.9
		c-1.6,1.5-3,2.2-3.8,2.2c-1.6,0-5.4-2.5-8.6-8.1C-196.9,422.1-197.7,420.2-198.2,418.5 M-172.8,410.8c-1.3-2.3-6.7-4.7-14.3-4.7
		c-7.5,0-13,2.4-14.3,4.7c-0.7,1.2-0.8,3.2-0.4,5.7l0.5,2.1c0.2,0.8,0.5,1.7,0.8,2.5c0,0,0,0.1,0,0.1c0,0.1,0.1,0.2,0.1,0.2
		c0.6,1.4,1.2,2.7,2,4.1c1.8,3.1,3.8,5.5,5.7,7.2c2.1,1.9,4.1,2.9,5.5,2.9h0h0c1.5,0,3.1-1,4.3-2c0.4-0.3,0.8-0.6,1.1-0.9l1.3-1.3
		l0.2-0.2c1.5-1.6,2.8-3.5,4.1-5.7C-172.3,418.7-171.6,413-172.8,410.8"/>
</g>
</svg>
