<svg xmlns="http://www.w3.org/2000/svg" xmlns:xlink="http://www.w3.org/1999/xlink" viewBox="0 0 165 111"><defs><path id="a" d="M12.543 0h137.94c0 5.276.01 38.049.02 61.348h-35.31V96.77H.003V10.219C.812 4.303 6.428-.001 12.546-.001z"/><radialGradient id="c" cy="-3.119%" cx="18.634%" r="97.241%"><stop stop-color="#26435D" offset="0"/><stop stop-color="#26435D" stop-opacity="0" offset="1"/></radialGradient><path id="b" d="M0 10.219C.809 4.303 6.425 0 12.543 0h137.94c0 5.276.01 38.049.02 61.348h-35.31V96.77H.003V10.219z"/><radialGradient id="e" cy="100.14%" cx="23.394%" r="116.55%"><stop stop-color="#B9D36A" offset="0"/><stop stop-color="#9AC427" offset=".429"/><stop stop-color="#96C21F" offset=".781"/><stop stop-color="#94C11A" offset="1"/></radialGradient></defs><g transform="translate(0 .01)" fill="none" fill-rule="evenodd"><use xlink:href="#a" fill="#0D1C34"/><mask id="d" fill="#fff"><use xlink:href="#b"/></mask><use xlink:href="#b" fill="url(#c)"/><path transform="matrix(1 0 0 -1 0 86.096)" mask="url(#d)" d="M41.03 72.274h11.895v-3.462h-7.102v-3.286h5.563v-3.414h-5.563v-3.634h7.351v-3.462H41.03v17.258zm14.229 0h7.25c4.346 0 6.532-1.669 6.532-5.379 0-2.367-1.068-3.586-2.855-4.359v-.099l3.848-7.421h-5.015l-3.153 6.275h-1.765v-6.275h-4.842v17.258zm6.581-8.069c1.713 0 2.408.822 2.408 2.465 0 1.594-.72 2.318-2.457 2.318h-1.739v-4.783h1.788zM30.427 34.569h4.843v17.258h-4.843V34.569zm7.375 17.258h11.896v-3.462h-7.103v-3.286h5.563v-3.413h-5.563v-3.635h7.351v-3.462H37.802v17.258zm14.229 0h11.87v-3.462h-7.028v-3.908h5.489V41.07h-5.489v-6.501h-4.842v17.258zm13.609 0h11.893v-3.462h-7.102v-3.286h5.562v-3.413h-5.562v-3.635h7.351v-3.462H65.64v17.258zm14.104 0h7.248c4.346 0 6.531-1.669 6.531-5.378 0-2.367-1.067-3.586-2.854-4.359v-.099l3.848-7.422h-5.015l-3.157 6.276h-1.761v-6.276h-4.84v17.258zm6.579-8.068c1.713 0 2.408.822 2.408 2.465 0 1.594-.721 2.317-2.46 2.317h-1.736v-4.782h1.788zm12.959 4.606h-4.518v3.462h13.876v-3.462h-4.51V34.569h-4.848v13.796zM16.299 72.274h4.841l2.259-10.882h.101l2.756 10.882h3.875l2.73-10.882h.099l2.409 10.882h4.198l-4.123-17.258h-4.842L28.018 65.65h-.075l-2.681-10.634h-4.866l-4.097 17.258zm1.116-20.447h4.843V38.031h6.531v-3.462H17.415v17.258zm-1.116-20.446h4.841l2.259-10.883h.101l2.756 10.883h3.875l2.73-10.883h.099l2.409 10.883h4.198l-4.123-17.258h-4.842l-2.584 10.634h-.075l-2.681-10.634h-4.866l-4.097 17.258zm27.736 0h5.141l5.958-17.258h-4.915l-1.144 3.411h-5.66l-1.069-3.411h-4.345l6.034 17.258zm.324-10.733h3.749l-1.838 5.728h-.1l-1.811-5.728zm11.968-5.802v3.535c1.515-.548 3.104-.972 5.09-.972 1.937 0 2.682.574 2.682 1.62 0 .996-.447 1.321-2.11 1.643l-1.291.249c-2.733.524-4.42 1.743-4.42 5.355 0 3.263 2.035 5.405 6.407 5.405 2.73 0 4.096-.424 5.09-.896v-3.489c-1.193.424-2.683.822-4.645.822-1.538 0-2.334-.473-2.334-1.468 0-.921.498-1.27 2.012-1.57l1.291-.248c3.029-.574 4.718-1.793 4.718-5.304 0-3.687-2.358-5.705-6.828-5.705-2.408 0-4.42.375-5.662 1.023z" fill="#fff"/><path d="M.493 49.653V.2h39.651c5.385 0 9.759 3.708 9.759 9.055v30.416c0 4.892-3.663 9.274-8.412 9.982H.493z" fill="url(#e)" transform="matrix(1 0 0 -1 114.7 111)"/><path d="M141.013 70.312a13.362 13.362 0 0 1 6.728 4.604c-2.283-3.459-6.094-5.768-10.45-5.847-7.135-.128-13.038 5.754-13.17 13.121a13.533 13.533 0 0 0 2.343 7.885 13.61 13.61 0 0 0 0 0c2.295 3.377 6.057 5.624 10.351 5.701 7.131.129 13.038-5.757 13.169-13.12a13.554 13.554 0 0 0-2.243-7.74 13.362 13.362 0 0 0-6.728-4.604zm-3.81 3.696c4.422.081 7.94 3.91 7.855 8.556-.081 4.65-3.733 8.348-8.156 8.273-4.419-.083-7.939-3.915-7.858-8.558.088-4.644 3.733-8.348 8.159-8.271zm10.561 20.367a17.53 17.53 0 0 1-1.573 1.416l-.543-.564a15.749 15.749 0 0 0 3.42-3.451l6.34 6.807.009.014-6.279-5.848 6.279 5.848.119.284c0 1.642-1.251 3.112-3.001 3.24-.259.023-.416-.169-.416-.169l-5.928-6.161a17.53 17.53 0 0 0 1.573-1.416z" fill="#FAFAFA"/><path d="M137.448 96.393l-.227-.003c-4.437-.079-8.318-2.474-10.568-6.043 2.31 3.225 5.985 5.354 10.162 5.429l.23.002c7.027-.001 12.809-5.838 12.939-13.122.035-1.83-.294-3.58-.913-5.181a13.434 13.434 0 0 1 1.255 5.915c-.129 7.216-5.883 13.003-12.878 13.003zm-8.293-12.695a8.978 8.978 0 0 1-.111-1.419c.088-4.597 3.66-8.272 8.025-8.272l.134.001c3.332.062 6.147 2.252 7.298 5.315-1.19-2.431-3.377-4.205-6.074-4.544a7.477 7.477 0 0 0-.941-.059c-4.105 0-7.714 3.405-8.297 8.021-.041.325-.024.638-.034.957zm23.282 19.358c-.233 0-.372-.17-.372-.17l-6.417-6.699v-.957l.002-.002 6.469 6.725a.516.516 0 0 0 .416.17c1.467-.109 2.574-1.165 2.895-2.47l.051.16c0 1.644-1.251 3.113-3.002 3.241a.49.49 0 0 1-.042.002z" fill="#8FB22C"/></g></svg>