<?xml version="1.0" encoding="utf-8"?>
<!-- Generator: Adobe Illustrator 19.2.1, SVG Export Plug-In . SVG Version: 6.00 Build 0)  -->
<svg version="1.1" id="XING_Logo__x28_neg_x29_" xmlns="http://www.w3.org/2000/svg" xmlns:xlink="http://www.w3.org/1999/xlink"
	 x="0px" y="0px" viewBox="0 0 92 40" style="enable-background:new 0 0 92 40;" xml:space="preserve">
<style type="text/css">
	.st0{fill:#FFFFFF;}
	.st1{fill:#B0D400;}
</style>
<g id="XING_Logo__x28_neg_x29__1_">
	<path class="st0" d="M9.3,22.6l3.7-7c0.2-0.4,0.3-0.6,0.8-0.6h4c0.2,0,0.3,0.1,0.4,0.2c0,0.1,0.1,0.1,0.1,0.2c0,0.1,0,0.2-0.1,0.2
		l-5.8,10.6c0,0,0,0,0,0c0,0,0,0,0,0c0,0,6.1,11.1,6.1,11.1c0,0.1,0.1,0.2,0.1,0.2c0,0.1,0,0.2-0.1,0.2c-0.1,0.1-0.2,0.2-0.4,0.2h-4
		c-0.5,0-0.6-0.3-0.8-0.6c0,0-4.1-7.5-4.1-7.5c0,0,0,0,0,0c0,0,0,0,0,0l-4.1,7.5c-0.2,0.4-0.3,0.6-0.8,0.6h-4
		c-0.2,0-0.3-0.1-0.4-0.2c-0.1-0.1-0.1-0.3,0-0.5l6.1-11.1c0,0,0,0,0,0L0.4,15.7c-0.1-0.2-0.1-0.3,0-0.5C0.5,15.1,0.6,15,0.8,15h4
		c0.5,0,0.6,0.3,0.8,0.6L9.3,22.6C9.3,22.6,9.3,22.6,9.3,22.6C9.3,22.6,9.3,22.6,9.3,22.6z"/>
	<path class="st0" d="M40.2,28.8C40.2,28.8,40.2,28.8,40.2,28.8l0-13.2c0-0.3,0.2-0.6,0.6-0.6H44c0.3,0,0.6,0.2,0.6,0.6v21.9
		c0,0.3-0.2,0.6-0.6,0.6h-3.3c-0.4,0-0.7-0.3-0.8-0.6c0,0-6.8-13.2-6.8-13.2c0,0,0,0,0,0c0,0,0,0,0,0v13.2c0,0.3-0.2,0.6-0.6,0.6
		h-3.2c-0.3,0-0.6-0.2-0.6-0.6V15.6c0-0.3,0.3-0.6,0.6-0.6h3.3c0.5,0,0.6,0.3,0.8,0.6L40.2,28.8C40.2,28.8,40.2,28.8,40.2,28.8z"/>
	<path class="st0" d="M20.8,37.5V15.6c0-0.3,0.2-0.6,0.6-0.6h3.2c0.3,0,0.6,0.2,0.6,0.6v21.9c0,0.3-0.2,0.6-0.6,0.6h-3.2
		C21,38.1,20.8,37.8,20.8,37.5z"/>
	<path class="st0" d="M57.6,18.7c-1.7,0-3.1,0.4-4.2,1.9c-1,1.4-1.6,3.2-1.6,5.8c0,2.5,0.1,4.5,1,5.8c0.8,1.3,2.2,2.2,3.9,2.2l0,0
		c1.9,0,3.3-0.5,3.3-0.5c0,0,0,0,0,0V29c0,0,0,0,0,0h-3.3c-0.3,0-0.6-0.3-0.6-0.6v-2.8c0-0.3,0.2-0.6,0.6-0.6h7.1
		c0.3,0,0.6,0.3,0.6,0.6c0,0,0,11.1,0,11.1c-0.2,0.1-3.7,1.8-7.9,1.8c-3.5,0-5.5-1.3-6.9-3.2c-1.6-2.1-2.2-5.6-2.2-8.8
		c0-2.3,0.3-4.4,1.1-6.2c0.8-1.9,2.2-3.4,3.6-4.2c1.6-0.9,3.5-1.3,5.4-1.3h0.5c2.9,0,4.6,0.7,5.2,1c0.5,0.2,0.6,0.4,0.6,0.7v2.7
		c0,0.2-0.1,0.3-0.2,0.4c-0.1,0.1-0.3,0.1-0.4,0.1c-1.1-0.4-2.8-0.9-5.1-0.9H57.6z"/>
	<g>
		<path class="st1" d="M87.8,2.3c-0.5,0-0.8,0.3-1,0.7c0,0-7.7,13.7-8,14.1c0,0,5.1,9.3,5.1,9.3c0.2,0.3,0.5,0.7,1,0.7h3.6
			c0.2,0,0.4-0.1,0.5-0.2c0.1-0.2,0.1-0.4,0-0.6l-5-9.2c0,0,0,0,0,0l7.9-14c0.1-0.2,0.1-0.4,0-0.6c-0.1-0.1-0.3-0.2-0.5-0.2H87.8z"
			/>
		<path class="st0" d="M72.8,7.2c-0.2,0-0.4,0.1-0.5,0.2c-0.1,0.2-0.1,0.4,0,0.6l2.4,4.2c0,0,0,0,0,0L71,18.9
			c-0.1,0.2-0.1,0.4,0,0.6c0.1,0.1,0.3,0.2,0.5,0.2H75c0.5,0,0.8-0.4,1-0.7c0,0,3.7-6.6,3.9-6.8c0,0-2.5-4.3-2.5-4.3
			c-0.2-0.3-0.5-0.7-1-0.7H72.8z"/>
	</g>
</g>
</svg>
