
<svg width="698px" height="334px" viewBox="0 0 698 334" version="1.1" xmlns="http://www.w3.org/2000/svg" xmlns:xlink="http://www.w3.org/1999/xlink">
    <!-- Generator: Sketch 48.2 (47327) - http://www.bohemiancoding.com/sketch -->
    <desc>Created with Sketch.</desc>
    <defs></defs>
    <g id="Page-1" stroke="none" stroke-width="1" fill="none" fill-rule="evenodd">
        <g id="Landing-page-Copy" transform="translate(-291.000000, -193.000000)">
            <g id="Header-SVG" transform="translate(291.000000, 195.000000)">
                <path d="M0,-0.0004 L241.476,-0.0004" id="Stroke-1" stroke="#E85454" stroke-width="4"></path>
                <path d="M2,237.476 L2,2" id="Stroke-2" stroke="#E85454" stroke-width="4"></path>
                <path d="M241.4764,-0.0004 L697.7584,-0.0004" id="Stroke-3" stroke="#E85454" stroke-width="4"></path>
                <path d="M241.4764,237.476 L241.4764,2" id="Stroke-4" stroke="#E85454" stroke-width="4"></path>
                <path d="M695.7587,237.476 L695.7587,2" id="Stroke-5" stroke="#E85454" stroke-width="4"></path>
                <path d="M0,239.476 L241.476,239.476" id="Stroke-6" stroke="#E85454" stroke-width="4"></path>
                <path d="M2,327.602 L2,241.476" id="Stroke-7" stroke="#E85454" stroke-width="4"></path>
                <path d="M241.4764,239.476 L697.7584,239.476" id="Stroke-8" stroke="#E85454" stroke-width="4"></path>
                <path d="M695.7587,327.602 L695.7587,241.476" id="Stroke-9" stroke="#E85454" stroke-width="4"></path>
                <g id="Group-14" transform="translate(0.000000, 328.922000)" stroke="#E85454" stroke-width="4">
                    <path d="M0,0.68 L241.476,0.68" id="Stroke-10"></path>
                    <path d="M241.4764,0.68 L697.7584,0.68" id="Stroke-12"></path>
                </g>
                <path d="M205.727539,283.24707 L207.425781,266.585938 L224.545898,266.585938 L224.545898,270.510254 L211.028809,270.510254 L210.019043,279.621094 C211.656095,278.657222 213.514964,278.175293 215.595703,278.175293 C218.640315,278.175293 221.057608,279.181224 222.847656,281.193115 C224.637704,283.205007 225.532715,285.924462 225.532715,289.351562 C225.532715,292.793963 224.603281,295.505768 222.744385,297.487061 C220.885489,299.468353 218.288428,300.458984 214.953125,300.458984 C212.000311,300.458984 209.590667,299.64047 207.724121,298.003418 C205.857575,296.366366 204.794272,294.102065 204.53418,291.210449 L208.550293,291.210449 C208.810385,293.122894 209.491205,294.564855 210.592773,295.536377 C211.694341,296.507899 213.147777,296.993652 214.953125,296.993652 C216.926768,296.993652 218.475824,296.320482 219.600342,294.974121 C220.724859,293.62776 221.287109,291.768892 221.287109,289.397461 C221.287109,287.163726 220.678961,285.36988 219.462646,284.015869 C218.246332,282.661858 216.628428,281.984863 214.608887,281.984863 C212.75764,281.984863 211.304204,282.390295 210.248535,283.201172 L209.124023,284.119141 L205.727539,283.24707 Z M236.364746,269.15625 L236.364746,275.168945 L241.000488,275.168945 L241.000488,278.450684 L236.364746,278.450684 L236.364746,293.849609 C236.364746,294.84408 236.571287,295.589923 236.984375,296.087158 C237.397463,296.584394 238.101232,296.833008 239.095703,296.833008 C239.585289,296.833008 240.258459,296.741212 241.115234,296.557617 L241.115234,300 C239.998367,300.305991 238.912115,300.458984 237.856445,300.458984 C235.9593,300.458984 234.528813,299.88526 233.564941,298.737793 C232.601069,297.590326 232.119141,295.960948 232.119141,293.849609 L232.119141,278.450684 L227.598145,278.450684 L227.598145,275.168945 L232.119141,275.168945 L232.119141,269.15625 L236.364746,269.15625 Z M250.203125,278.175293 C252.08497,275.86506 254.532863,274.709961 257.546875,274.709961 C262.794623,274.709961 265.441406,277.670381 265.487305,283.591309 L265.487305,300 L261.241699,300 L261.241699,283.568359 C261.2264,281.778311 260.817143,280.45492 260.013916,279.598145 C259.210689,278.741369 257.959969,278.312988 256.261719,278.312988 C254.884759,278.312988 253.676112,278.680172 252.635742,279.414551 C251.595372,280.148929 250.784508,281.112787 250.203125,282.306152 L250.203125,300 L245.95752,300 L245.95752,264.75 L250.203125,264.75 L250.203125,278.175293 Z M282.584473,291.026855 C282.584473,289.420402 283.031978,287.944017 283.927002,286.597656 C284.822026,285.251295 286.531726,283.683114 289.056152,281.893066 C287.572095,280.087719 286.577639,278.634283 286.072754,277.532715 C285.567869,276.431147 285.31543,275.337245 285.31543,274.250977 C285.31543,271.71125 286.065097,269.722338 287.564453,268.28418 C289.06381,266.846021 291.09862,266.126953 293.668945,266.126953 C295.963879,266.126953 297.860995,266.796299 299.360352,268.13501 C300.859708,269.473721 301.609375,271.160472 301.609375,273.195312 C301.609375,274.541673 301.268965,275.784744 300.588135,276.924561 C299.907305,278.064377 298.717782,279.26155 297.019531,280.516113 L294.563965,282.329102 L301.999512,291.210449 C303.039882,289.221507 303.560059,287.010754 303.560059,284.578125 L307.392578,284.578125 C307.392578,288.479512 306.45167,291.715319 304.569824,294.285645 L309.343262,300 L304.248535,300 L302.022461,297.36084 C300.890294,298.370611 299.563077,299.139402 298.040771,299.667236 C296.518466,300.195071 294.969409,300.458984 293.393555,300.458984 C290.134749,300.458984 287.518565,299.594572 285.544922,297.865723 C283.571279,296.136873 282.584473,293.857273 282.584473,291.026855 Z M293.393555,296.993652 C295.642589,296.993652 297.700349,296.13689 299.566895,294.42334 L291.419922,284.669922 L290.662598,285.220703 C288.107572,287.102548 286.830078,289.037913 286.830078,291.026855 C286.830078,292.832203 287.415277,294.277989 288.585693,295.364258 C289.756109,296.450526 291.358714,296.993652 293.393555,296.993652 Z M289.561035,274.113281 C289.561035,275.582039 290.463695,277.417958 292.269043,279.621094 L294.977051,277.716309 C296.017421,276.98193 296.728839,276.281986 297.111328,275.616455 C297.493817,274.950924 297.685059,274.143885 297.685059,273.195312 C297.685059,272.170242 297.302575,271.317305 296.537598,270.636475 C295.77262,269.955644 294.808762,269.615234 293.645996,269.615234 C292.391433,269.615234 291.396976,270.039791 290.662598,270.888916 C289.928219,271.738041 289.561035,272.812819 289.561035,274.113281 Z M340.554199,266.562988 L340.554199,270.166016 L339.773926,270.166016 C336.469222,270.227214 333.837738,271.206371 331.879395,273.103516 C329.921051,275.000661 328.788901,277.670393 328.48291,281.112793 C330.242359,279.093252 332.644353,278.083496 335.688965,278.083496 C338.59588,278.083496 340.917553,279.108551 342.654053,281.158691 C344.390552,283.208832 345.258789,285.855615 345.258789,289.099121 C345.258789,292.541521 344.321705,295.2954 342.44751,297.36084 C340.573314,299.42628 338.0604,300.458984 334.908691,300.458984 C331.711084,300.458984 329.117848,299.231213 327.128906,296.775635 C325.139964,294.320056 324.145508,291.15692 324.145508,287.286133 L324.145508,285.656738 C324.145508,279.506317 325.457425,274.805599 328.081299,271.554443 C330.705173,268.303288 334.610326,266.639486 339.796875,266.562988 L340.554199,266.562988 Z M334.977539,281.617676 C333.524081,281.617676 332.18539,282.053707 330.961426,282.925781 C329.737461,283.797856 328.888349,284.891758 328.414062,286.20752 L328.414062,287.768066 C328.414062,290.521986 329.033685,292.740389 330.272949,294.42334 C331.512213,296.106291 333.057445,296.947754 334.908691,296.947754 C336.821136,296.947754 338.324295,296.243985 339.418213,294.836426 C340.512131,293.428867 341.059082,291.585298 341.059082,289.305664 C341.059082,287.010731 340.504481,285.155687 339.395264,283.740479 C338.286046,282.32527 336.813486,281.617676 334.977539,281.617676 Z M356.480957,269.15625 L356.480957,275.168945 L361.116699,275.168945 L361.116699,278.450684 L356.480957,278.450684 L356.480957,293.849609 C356.480957,294.84408 356.687498,295.589923 357.100586,296.087158 C357.513674,296.584394 358.217443,296.833008 359.211914,296.833008 C359.7015,296.833008 360.37467,296.741212 361.231445,296.557617 L361.231445,300 C360.114578,300.305991 359.028326,300.458984 357.972656,300.458984 C356.075511,300.458984 354.645024,299.88526 353.681152,298.737793 C352.71728,297.590326 352.235352,295.960948 352.235352,293.849609 L352.235352,278.450684 L347.714355,278.450684 L347.714355,275.168945 L352.235352,275.168945 L352.235352,269.15625 L356.480957,269.15625 Z M370.319336,278.175293 C372.201181,275.86506 374.649073,274.709961 377.663086,274.709961 C382.910834,274.709961 385.557617,277.670381 385.603516,283.591309 L385.603516,300 L381.35791,300 L381.35791,283.568359 C381.342611,281.778311 380.933354,280.45492 380.130127,279.598145 C379.3269,278.741369 378.07618,278.312988 376.37793,278.312988 C375.00097,278.312988 373.792323,278.680172 372.751953,279.414551 C371.711583,280.148929 370.900719,281.112787 370.319336,282.306152 L370.319336,300 L366.07373,300 L366.07373,264.75 L370.319336,264.75 L370.319336,278.175293 Z M409.952637,266.585938 L420.876465,293.849609 L431.800293,266.585938 L437.514648,266.585938 L437.514648,300 L433.108398,300 L433.108398,286.987793 L433.521484,272.942871 L422.551758,300 L419.178223,300 L408.231445,273.011719 L408.66748,286.987793 L408.66748,300 L404.26123,300 L404.26123,266.585938 L409.952637,266.585938 Z M459.958984,300 C459.714191,299.510414 459.5153,298.638353 459.362305,297.383789 C457.388662,299.43393 455.032566,300.458984 452.293945,300.458984 C449.846016,300.458984 447.83798,299.76669 446.269775,298.38208 C444.701571,296.99747 443.91748,295.241873 443.91748,293.115234 C443.91748,290.529609 444.900462,288.521573 446.866455,287.091064 C448.832448,285.660556 451.597801,284.945312 455.162598,284.945312 L459.293457,284.945312 L459.293457,282.994629 C459.293457,281.510572 458.849777,280.328699 457.962402,279.448975 C457.075028,278.56925 455.766936,278.129395 454.038086,278.129395 C452.52343,278.129395 451.253586,278.511878 450.228516,279.276855 C449.203445,280.041833 448.690918,280.967442 448.690918,282.053711 L444.422363,282.053711 C444.422363,280.814447 444.862219,279.617275 445.741943,278.462158 C446.621668,277.307042 447.815015,276.392907 449.322021,275.719727 C450.829028,275.046546 452.48518,274.709961 454.290527,274.709961 C457.151544,274.709961 459.392896,275.425204 461.014648,276.855713 C462.636401,278.286221 463.477864,280.25601 463.539062,282.765137 L463.539062,294.193848 C463.539062,296.473481 463.82975,298.286452 464.411133,299.632812 L464.411133,300 L459.958984,300 Z M452.913574,296.76416 C454.244636,296.76416 455.50683,296.419925 456.700195,295.731445 C457.893561,295.042965 458.757973,294.147955 459.293457,293.046387 L459.293457,287.95166 L455.96582,287.95166 C450.763971,287.95166 448.163086,289.473943 448.163086,292.518555 C448.163086,293.849616 448.606766,294.88997 449.494141,295.639648 C450.381515,296.389327 451.521315,296.76416 452.913574,296.76416 Z M477.974121,293.780762 L483.757324,275.168945 L488.30127,275.168945 L478.318359,303.83252 C476.773104,307.9634 474.317562,310.028809 470.95166,310.028809 L470.148438,309.959961 L468.564941,309.661621 L468.564941,306.219238 L469.712402,306.311035 C471.150561,306.311035 472.271236,306.020348 473.074463,305.438965 C473.87769,304.857582 474.539385,303.794279 475.05957,302.249023 L476.000488,299.724609 L467.14209,275.168945 L471.777832,275.168945 L477.974121,293.780762 Z" id="5th-&amp;-6th-May" fill="#E85454"></path>
                <polygon id="Fill-15" fill="#E85454" points="74.5501 65.6133 36.8501 103.3133 119.4231 185.8853 201.5881 103.7193 163.4811 65.6133"></polygon>
                <g id="Group-20" transform="translate(61.000000, 56.922000)" fill="#5C4594">
                    <path d="M96.4642,38.5865 L90.6072,32.7295 L75.8332,47.5045 L101.0732,72.7445 L107.6112,66.2085 L97.7492,56.3455 L104.4372,49.6575 L98.5802,43.8005 L91.8922,50.4895 L88.2262,46.8235 L96.4642,38.5865 Z M97.6622,76.1565 L72.4212,50.9155 L66.2242,57.1135 L77.6352,68.5235 L61.0862,62.2515 L54.5112,68.8265 L79.7512,94.0665 L85.9482,87.8705 L74.2732,76.1945 L91.2382,82.5805 L97.6622,76.1565 Z M58.1722,90.4055 C63.5002,95.7325 64.1802,98.5295 62.5922,100.1175 C61.0052,101.7035 58.2102,101.0235 52.8822,95.6955 C47.5542,90.3675 46.8732,87.5725 48.4612,85.9855 C50.0482,84.3975 52.8452,85.0775 58.1722,90.4055 Z M64.8982,83.6795 C57.6432,76.4255 48.6882,73.8935 42.5292,80.0525 C36.3702,86.2115 38.9022,95.1665 46.1562,102.4215 C53.4112,109.6755 62.3662,112.2075 68.5252,106.0485 C74.6842,99.8895 72.1522,90.9345 64.8982,83.6795 Z" id="Fill-16"></path>
                    <path d="M76.0748,13.3829 L69.4618,19.9949 C71.6538,22.6399 71.6538,23.6979 70.6708,24.6809 C68.5548,26.7969 65.7208,24.4929 61.1488,19.9209 C56.5768,15.3479 54.3478,12.5899 56.4638,10.4739 C57.3328,9.6049 58.3528,9.4159 60.6198,11.3799 L67.1568,4.8439 C61.1868,-0.5221 56.0108,-0.9381 50.6438,4.4279 C44.0708,11.0029 45.7708,17.9919 54.4228,26.6459 C63.0758,35.2989 70.0668,36.9989 76.4898,30.5759 C82.2718,24.7939 81.9688,20.2599 76.0748,13.3829 Z M64.2368,42.0729 L38.9948,16.8329 L32.7988,23.0289 L44.2088,34.4409 L27.6598,28.1689 L21.0848,34.7429 L46.3258,59.9839 L52.5228,53.7879 L40.8468,42.1119 L57.8118,48.4979 L64.2368,42.0729 Z M35.3378,54.7999 L18.1838,37.6459 L11.8348,43.9929 L28.8388,60.9959 C30.3498,62.5079 30.2738,64.3969 28.6498,66.0229 C27.0248,67.6469 25.1728,67.6849 23.6618,66.1729 L6.6578,49.1699 L0.1218,55.7069 L17.2758,72.8619 C22.5658,78.1519 29.4808,77.5839 34.7708,72.2949 C40.0608,67.0049 40.6278,60.0899 35.3378,54.7999 Z" id="Fill-18"></path>
                </g>
                <path d="M278.708008,58.4394531 L272.956055,58.4394531 L272.956055,74 L262.330078,74 L262.330078,29.921875 L279.676758,29.921875 C284.903997,29.921875 288.990871,31.0823452 291.9375,33.4033203 C294.884129,35.7242955 296.357422,39.0038851 296.357422,43.2421875 C296.357422,46.3099112 295.736823,48.8528545 294.495605,50.8710938 C293.254388,52.889333 291.311862,54.5240823 288.667969,55.7753906 L297.871094,73.5458984 L297.871094,74 L286.488281,74 L278.708008,58.4394531 Z M272.956055,50.2353516 L279.676758,50.2353516 C281.694997,50.2353516 283.213699,49.7055717 284.23291,48.6459961 C285.252121,47.5864205 285.761719,46.1080824 285.761719,44.2109375 C285.761719,42.3137926 285.247075,40.8253635 284.217773,39.7456055 C283.188471,38.6658475 281.674815,38.1259766 279.676758,38.1259766 L272.956055,38.1259766 L272.956055,50.2353516 Z M337.347656,29.921875 L337.347656,58.7724609 C337.347656,62.0420085 336.651374,64.8725466 335.258789,67.2641602 C333.866204,69.6557737 331.868177,71.4772073 329.264648,72.7285156 C326.66112,73.979824 323.583351,74.6054688 320.03125,74.6054688 C314.662734,74.6054688 310.434586,73.2129046 307.34668,70.4277344 C304.258774,67.6425642 302.684571,63.8281492 302.624023,58.984375 L302.624023,29.921875 L313.310547,29.921875 L313.310547,59.1962891 C313.431641,64.0198809 315.671853,66.4316406 320.03125,66.4316406 C322.231131,66.4316406 323.896153,65.8261779 325.026367,64.6152344 C326.156581,63.4042908 326.72168,61.4365371 326.72168,58.7119141 L326.72168,29.921875 L337.347656,29.921875 Z M343.977539,74 L343.977539,29.921875 L359.810547,29.921875 C365.481799,29.921875 369.795721,30.9612526 372.752441,33.0400391 C375.709162,35.1188255 377.1875,38.1360479 377.1875,42.0917969 C377.1875,44.3724072 376.662766,46.3199789 375.613281,47.9345703 C374.563797,49.5491617 373.019867,50.739905 370.981445,51.5068359 C373.282238,52.1123077 375.048171,53.2425047 376.279297,54.8974609 C377.510423,56.5524171 378.125977,58.5706261 378.125977,60.9521484 C378.125977,65.2711804 376.75864,68.5154514 374.023926,70.6850586 C371.289212,72.8546658 367.237657,73.9596352 361.869141,74 L343.977539,74 Z M354.603516,55.2607422 L354.603516,65.8261719 L361.566406,65.8261719 C363.483734,65.8261719 364.957026,65.3872114 365.986328,64.5092773 C367.01563,63.6313433 367.530273,62.3951903 367.530273,60.8007812 C367.530273,57.1275858 365.703794,55.2809246 362.050781,55.2607422 L354.603516,55.2607422 Z M354.603516,48.2978516 L360.143555,48.2978516 C362.46453,48.2776692 364.119461,47.8538453 365.108398,47.0263672 C366.097336,46.1988891 366.591797,44.9778727 366.591797,43.3632812 C366.591797,41.5065011 366.056971,40.1694377 364.987305,39.3520508 C363.917638,38.5346639 362.192069,38.1259766 359.810547,38.1259766 L354.603516,38.1259766 L354.603516,48.2978516 Z M398.439453,49.0546875 L406.552734,29.921875 L418.026367,29.921875 L403.828125,58.1669922 L403.828125,74 L393.050781,74 L393.050781,58.1669922 L378.882812,29.921875 L390.295898,29.921875 L398.439453,49.0546875 Z M471.24707,29.921875 L471.24707,58.7724609 C471.24707,62.0420085 470.550788,64.8725466 469.158203,67.2641602 C467.765618,69.6557737 465.767591,71.4772073 463.164062,72.7285156 C460.560534,73.979824 457.482765,74.6054688 453.930664,74.6054688 C448.562148,74.6054688 444.334,73.2129046 441.246094,70.4277344 C438.158188,67.6425642 436.583985,63.8281492 436.523438,58.984375 L436.523438,29.921875 L447.209961,29.921875 L447.209961,59.1962891 C447.331055,64.0198809 449.571267,66.4316406 453.930664,66.4316406 C456.130545,66.4316406 457.795567,65.8261779 458.925781,64.6152344 C460.055995,63.4042908 460.621094,61.4365371 460.621094,58.7119141 L460.621094,29.921875 L471.24707,29.921875 Z M514.689453,74 L504.124023,74 L488.50293,46.5722656 L488.50293,74 L477.876953,74 L477.876953,29.921875 L488.50293,29.921875 L504.09375,57.3496094 L504.09375,29.921875 L514.689453,29.921875 L514.689453,74 Z M557.072266,59.0751953 C556.930989,62.142919 556.103523,64.8523645 554.589844,67.2036133 C553.076164,69.554862 550.951999,71.3762956 548.217285,72.6679688 C545.482571,73.9596419 542.359393,74.6054688 538.847656,74.6054688 C533.05531,74.6054688 528.494157,72.7184433 525.164062,68.9443359 C521.833968,65.1702285 520.168945,59.8421568 520.168945,52.9599609 L520.168945,50.7802734 C520.168945,46.4612414 520.920728,42.6821451 522.424316,39.4428711 C523.927905,36.2035971 526.092434,33.7010179 528.917969,31.9350586 C531.743504,30.1690992 535.013002,29.2861328 538.726562,29.2861328 C544.074897,29.2861328 548.373682,30.6938336 551.623047,33.5092773 C554.872412,36.3247211 556.719073,40.2047279 557.163086,45.1494141 L546.567383,45.1494141 C546.486653,42.4651558 545.810553,40.5377663 544.539062,39.3671875 C543.267572,38.1966087 541.330091,37.6113281 538.726562,37.6113281 C536.082669,37.6113281 534.145188,38.6002505 532.914062,40.578125 C531.682937,42.5559995 531.03711,45.7144965 530.976562,50.0537109 L530.976562,53.171875 C530.976562,57.8743725 531.566889,61.2346904 532.747559,63.2529297 C533.928229,65.2711689 535.961574,66.2802734 538.847656,66.2802734 C541.289726,66.2802734 543.156569,65.7050839 544.448242,64.5546875 C545.739915,63.4042911 546.426106,61.577812 546.506836,59.0751953 L557.072266,59.0751953 Z M599.424805,52.8691406 C599.424805,57.1679902 598.627612,60.9723142 597.033203,64.2822266 C595.438794,67.5921389 593.173355,70.1401278 590.236816,71.9262695 C587.300278,73.7124113 583.955097,74.6054688 580.201172,74.6054688 C576.447247,74.6054688 573.117202,73.7426844 570.210938,72.0170898 C567.304673,70.2914953 565.039233,67.8242348 563.414551,64.6152344 C561.789868,61.406234 560.937175,57.7230026 560.856445,53.5654297 L560.856445,51.0830078 C560.856445,46.7639758 561.648592,42.9546063 563.23291,39.6547852 C564.817228,36.354964 567.087713,33.8069751 570.044434,32.0107422 C573.001154,30.2145092 576.366518,29.3164062 580.140625,29.3164062 C583.874368,29.3164062 587.204412,30.2044182 590.130859,31.9804688 C593.057306,33.7565193 595.332837,36.284326 596.95752,39.5639648 C598.582202,42.8436036 599.404622,46.6025179 599.424805,50.8408203 L599.424805,52.8691406 Z M588.617188,51.0224609 C588.617188,46.6428817 587.885587,43.3178824 586.422363,41.0473633 C584.95914,38.7768441 582.865248,37.6416016 580.140625,37.6416016 C574.812473,37.6416016 571.997072,41.6376554 571.694336,49.6298828 L571.664062,52.8691406 C571.664062,57.1881726 572.380527,60.5081264 573.813477,62.8291016 C575.246426,65.1500767 577.375637,66.3105469 580.201172,66.3105469 C582.88543,66.3105469 584.954094,65.1702588 586.407227,62.8896484 C587.860359,60.6090381 588.597005,57.3294485 588.617188,53.0507812 L588.617188,51.0224609 Z M641.716797,74 L631.151367,74 L615.530273,46.5722656 L615.530273,74 L604.904297,74 L604.904297,29.921875 L615.530273,29.921875 L631.121094,57.3496094 L631.121094,29.921875 L641.716797,29.921875 L641.716797,74 Z M676.198242,56.4414062 L659.063477,56.4414062 L659.063477,74 L648.4375,74 L648.4375,29.921875 L677.923828,29.921875 L677.923828,38.1259766 L659.063477,38.1259766 L659.063477,48.2675781 L676.198242,48.2675781 L676.198242,56.4414062 Z" id="RUBY-UNCONF" fill="#5C4594"></path>
                <path d="M299.172852,141 L288.607422,141 L288.607422,122.59375 L272.956055,122.59375 L272.956055,141 L262.330078,141 L262.330078,96.921875 L272.956055,96.921875 L272.956055,114.419922 L288.607422,114.419922 L288.607422,96.921875 L299.172852,96.921875 L299.172852,141 Z M331.474609,132.765625 L316.913086,132.765625 L314.370117,141 L303.017578,141 L319.183594,96.921875 L329.173828,96.921875 L345.460938,141 L334.047852,141 L331.474609,132.765625 Z M319.456055,124.561523 L328.931641,124.561523 L324.178711,109.273438 L319.456055,124.561523 Z M362.625977,96.921875 L372.464844,127.588867 L382.273438,96.921875 L396.259766,96.921875 L396.259766,141 L385.603516,141 L385.603516,130.707031 L386.632812,109.636719 L375.976562,141 L368.953125,141 L358.266602,109.606445 L359.295898,130.707031 L359.295898,141 L348.669922,141 L348.669922,96.921875 L362.625977,96.921875 Z M403.010742,141 L403.010742,96.921875 L418.84375,96.921875 C424.515002,96.921875 428.828924,97.9612526 431.785645,100.040039 C434.742365,102.118825 436.220703,105.136048 436.220703,109.091797 C436.220703,111.372407 435.695969,113.319979 434.646484,114.93457 C433.597,116.549162 432.05307,117.739905 430.014648,118.506836 C432.315441,119.112308 434.081374,120.242505 435.3125,121.897461 C436.543626,123.552417 437.15918,125.570626 437.15918,127.952148 C437.15918,132.27118 435.791843,135.515451 433.057129,137.685059 C430.322415,139.854666 426.27086,140.959635 420.902344,141 L403.010742,141 Z M413.636719,122.260742 L413.636719,132.826172 L420.599609,132.826172 C422.516937,132.826172 423.990229,132.387211 425.019531,131.509277 C426.048833,130.631343 426.563477,129.39519 426.563477,127.800781 C426.563477,124.127586 424.736997,122.280925 421.083984,122.260742 L413.636719,122.260742 Z M413.636719,115.297852 L419.176758,115.297852 C421.497733,115.277669 423.152664,114.853845 424.141602,114.026367 C425.130539,113.198889 425.625,111.977873 425.625,110.363281 C425.625,108.506501 425.090175,107.169438 424.020508,106.352051 C422.950841,105.534664 421.225272,105.125977 418.84375,105.125977 L413.636719,105.125977 L413.636719,115.297852 Z M477.574219,96.921875 L477.574219,125.772461 C477.574219,129.042009 476.877937,131.872547 475.485352,134.26416 C474.092766,136.655774 472.09474,138.477207 469.491211,139.728516 C466.887682,140.979824 463.809914,141.605469 460.257812,141.605469 C454.889296,141.605469 450.661148,140.212905 447.573242,137.427734 C444.485336,134.642564 442.911133,130.828149 442.850586,125.984375 L442.850586,96.921875 L453.537109,96.921875 L453.537109,126.196289 C453.658204,131.019881 455.898416,133.431641 460.257812,133.431641 C462.457693,133.431641 464.122716,132.826178 465.25293,131.615234 C466.383144,130.404291 466.948242,128.436537 466.948242,125.711914 L466.948242,96.921875 L477.574219,96.921875 Z M500.582031,125.439453 L494.830078,125.439453 L494.830078,141 L484.204102,141 L484.204102,96.921875 L501.550781,96.921875 C506.778021,96.921875 510.864894,98.0823452 513.811523,100.40332 C516.758153,102.724295 518.231445,106.003885 518.231445,110.242188 C518.231445,113.309911 517.610846,115.852854 516.369629,117.871094 C515.128412,119.889333 513.185886,121.524082 510.541992,122.775391 L519.745117,140.545898 L519.745117,141 L508.362305,141 L500.582031,125.439453 Z M494.830078,117.235352 L501.550781,117.235352 C503.569021,117.235352 505.087723,116.705572 506.106934,115.645996 C507.126144,114.58642 507.635742,113.108082 507.635742,111.210938 C507.635742,109.313793 507.121099,107.825363 506.091797,106.745605 C505.062495,105.665847 503.548838,105.125977 501.550781,105.125977 L494.830078,105.125977 L494.830078,117.235352 Z M560.735352,135.550781 C559.100578,137.367197 556.709,138.830398 553.560547,139.94043 C550.412094,141.050461 546.960956,141.605469 543.207031,141.605469 C537.434867,141.605469 532.823259,139.839536 529.37207,136.307617 C525.920881,132.775698 524.07422,127.86136 523.832031,121.564453 L523.801758,117.75 C523.801758,113.410786 524.568677,109.621598 526.102539,106.382324 C527.636401,103.14305 529.831203,100.650562 532.687012,98.9047852 C535.54282,97.1590082 538.847637,96.2861328 542.601562,96.2861328 C548.091173,96.2861328 552.35464,97.5424679 555.39209,100.055176 C558.42954,102.567884 560.200518,106.316707 560.705078,111.301758 L550.472656,111.301758 C550.109373,108.839506 549.322272,107.083664 548.111328,106.03418 C546.900385,104.984695 545.184907,104.459961 542.964844,104.459961 C540.300768,104.459961 538.242195,105.590158 536.789062,107.850586 C535.33593,110.111014 534.599284,113.340148 534.579102,117.538086 L534.579102,120.202148 C534.579102,124.60191 535.330884,127.906727 536.834473,130.116699 C538.338061,132.326671 540.704411,133.431641 543.933594,133.431641 C546.698582,133.431641 548.757155,132.816087 550.109375,131.584961 L550.109375,124.743164 L542.722656,124.743164 L542.722656,117.447266 L560.735352,117.447266 L560.735352,135.550781 Z" id="HAMBURG" fill="#5C4594"></path>
                <path d="M292.452148,208 L261.694336,208 L261.694336,201.339844 L275.862305,186.445312 C279.353859,182.469381 281.099609,179.310884 281.099609,176.969727 C281.099609,175.072582 280.685877,173.629562 279.858398,172.640625 C279.03092,171.651688 277.830086,171.157227 276.255859,171.157227 C274.701815,171.157227 273.440435,171.81819 272.47168,173.140137 C271.502925,174.462083 271.018555,176.111969 271.018555,178.089844 L260.786133,178.089844 C260.786133,175.385403 261.462233,172.88787 262.814453,170.597168 C264.166673,168.306466 266.043608,166.515306 268.445312,165.223633 C270.847017,163.93196 273.531235,163.286133 276.498047,163.286133 C281.261092,163.286133 284.929186,164.386057 287.502441,166.585938 C290.075696,168.785818 291.362305,171.944315 291.362305,176.061523 C291.362305,177.797209 291.039391,179.487459 290.393555,181.132324 C289.747718,182.777189 288.743659,184.502758 287.381348,186.309082 C286.019036,188.115406 283.824234,190.532211 280.796875,193.55957 L275.105469,200.128906 L292.452148,200.128906 L292.452148,208 Z M325.725078,189.987305 C325.725078,195.94111 324.388015,200.532536 321.713848,203.761719 C319.039681,206.990902 315.270675,208.605469 310.406719,208.605469 C305.502397,208.605469 301.708164,206.980811 299.023906,203.731445 C296.339648,200.48208 294.997539,195.900746 294.997539,189.987305 L294.997539,181.93457 C294.997539,175.980765 296.334602,171.389339 299.00877,168.160156 C301.682937,164.930973 305.462033,163.316406 310.346172,163.316406 C315.230311,163.316406 319.014453,164.941064 321.698711,168.19043 C324.382969,171.439795 325.725078,176.03122 325.725078,181.964844 L325.725078,189.987305 Z M315.52293,180.632812 C315.52293,177.464177 315.109197,175.097827 314.281719,173.533691 C313.454241,171.969556 312.142405,171.1875 310.346172,171.1875 C308.590304,171.1875 307.313787,171.914055 306.516582,173.367188 C305.719378,174.82032 305.290508,177.020168 305.229961,179.966797 L305.229961,191.228516 C305.229961,194.518246 305.643694,196.92496 306.471172,198.44873 C307.29865,199.972501 308.610486,200.734375 310.406719,200.734375 C312.142404,200.734375 313.423967,199.992683 314.251445,198.509277 C315.078923,197.025871 315.502747,194.699886 315.52293,191.53125 L315.52293,180.632812 Z M351.157187,208 L340.924766,208 L340.924766,175.425781 L330.873984,178.362305 L330.873984,170.612305 L350.218711,163.921875 L351.157187,163.921875 L351.157187,208 Z M391.695742,175.698242 C391.695742,177.837576 391.165962,179.724601 390.106387,181.359375 C389.046811,182.994149 387.588655,184.305985 385.731875,185.294922 C387.830844,186.324224 389.495866,187.731925 390.726992,189.518066 C391.958118,191.304208 392.573672,193.418282 392.573672,195.860352 C392.573672,199.795918 391.216426,202.90396 388.501894,205.18457 C385.787363,207.465181 382.048631,208.605469 377.285586,208.605469 C372.502359,208.605469 368.728308,207.460135 365.96332,205.169434 C363.198332,202.878732 361.815859,199.775736 361.815859,195.860352 C361.815859,193.499012 362.421322,191.410165 363.632266,189.59375 C364.843209,187.777335 366.558687,186.344406 368.77875,185.294922 C366.901787,184.305985 365.428495,182.994149 364.358828,181.359375 C363.289161,179.724601 362.754336,177.837576 362.754336,175.698242 C362.754336,171.863588 364.056081,168.836274 366.659609,166.616211 C369.263138,164.396148 372.774822,163.286133 377.194766,163.286133 C381.655074,163.286133 385.18694,164.396148 387.790469,166.616211 C390.393997,168.836274 391.695742,171.863588 391.695742,175.698242 Z M382.34125,195.042969 C382.34125,193.226553 381.872016,191.828944 380.933535,190.850098 C379.995054,189.871252 378.758901,189.381836 377.225039,189.381836 C375.691177,189.381836 374.449979,189.871252 373.501406,190.850098 C372.552834,191.828944 372.078555,193.226553 372.078555,195.042969 C372.078555,196.798837 372.557879,198.186356 373.516543,199.205566 C374.475207,200.224777 375.731542,200.734375 377.285586,200.734375 C378.799265,200.734375 380.020282,200.229823 380.948672,199.220703 C381.877062,198.211583 382.34125,196.819019 382.34125,195.042969 Z M377.194766,171.157227 C375.822363,171.157227 374.77794,171.606278 374.061465,172.504395 C373.34499,173.402511 372.986758,174.648755 372.986758,176.243164 C372.986758,177.817391 373.350035,179.088862 374.076602,180.057617 C374.803168,181.026372 375.872818,181.510742 377.285586,181.510742 C378.678171,181.510742 379.722594,181.026372 380.418887,180.057617 C381.115179,179.088862 381.46332,177.817391 381.46332,176.243164 C381.46332,174.668937 381.105088,173.427739 380.388613,172.519531 C379.672138,171.611324 378.607533,171.157227 377.194766,171.157227 Z" id="2018" fill="#5C4594"></path>
            </g>
        </g>
    </g>
</svg>