<svg id="Ebene_1" data-name="Ebene 1" xmlns="http://www.w3.org/2000/svg" viewBox="0 0 697.76 333.6"><defs><style>.cls-1{fill:none;stroke:#e85454;stroke-miterlimit:10;stroke-width:4px}.cls-2{fill:#e85454}.cls-3{fill:#5c4594}</style></defs><path class="cls-1" d="M0 2h241.48M2 239.48V4M241.48 2h456.28M241.48 239.48V4M695.76 239.48V4M0 241.48h241.48M2 329.6v-86.12M241.48 241.48h456.28M695.76 329.6v-86.12M0 331.6h241.48M241.48 331.6h456.28"/><path class="cls-2" d="M55.91 311.34V288.9l-4.59 8.93h-5.2l-4.59-8.93v22.44H31.12v-41.41h10.66l6.94 12.77 6.94-12.77h11v41.41zM110.35 311.34l-1.8-8h-9.42l-1.8 8H86.85l9.92-41.41h14.57l9.92 41.41zm-6.57-28.89l-2.85 12.71h5.77zM159.64 293.11v18.23h-10.73v-18.23l-12-23.19h12.21l5.39 11.72 5.49-11.71h11.66zM233.23 311.71h-4.59v-10.29H233c4.59 0 11.84-.37 11.84-6.51 0-2.85-2-4.46-6.57-4.46a59.21 59.21 0 0 0-9.92 1.05l1.49-24.8h24.92v9.61h-14.83l-.31 4.59a22 22 0 0 1 3-.12c9.55 0 13.27 6.26 13.27 13.95.03 11.84-9.33 16.98-22.66 16.98zM288.44 272.15v18.54h-6.25v-18.54h-5.57v-5.6H294v5.6zM316.85 290.69v-9.76h-4.48v9.76h-6.25v-24.14h6.25v8.78h4.48v-8.78h6.25v24.15zM397.62 311.34l-1.8-8h-9.42l-1.8 8h-10.47l9.87-41.41h14.57l9.92 41.41zm-6.57-28.89l-2.85 12.71h5.8zM448.21 311.34l-8.68-19.16v19.16h-10.16v-41.41h10.79l8.43 18.72v-18.72h10.17v41.41zM490.5 311.34h-7v-41.41h7c13.14 0 21.26 8.8 21.26 20.71s-8.12 20.7-21.26 20.7zm3.78-31.49v21.58c3.6-1.05 6.45-5.77 6.45-10.79 0-5.46-2.85-9.74-6.45-10.79zM587.28 312c-9.42 0-16.06-6.08-16.06-14.94 0-5.77 2.36-11.35 5.7-16.55a94.32 94.32 0 0 1 11.28-13.76H602a162.23 162.23 0 0 0-14.75 15.93 8.59 8.59 0 0 1 2.85-.25c6.26 0 13.08 5.46 13.08 14.63.03 8.82-6.48 14.94-15.9 14.94zm0-20.15c-2.91 0-5 1.86-5 5.21s2.11 5.21 5 5.21 5-1.86 5-5.21-2.09-5.25-5-5.25zM633.43 272.15v18.54h-6.25v-18.54h-5.57v-5.6H639v5.6zM661.84 290.69v-9.76h-4.48v9.76h-6.25v-24.14h6.25v8.78h4.48v-8.78h6.25v24.15z"/><path class="cls-2" d="M668.1 290.69v-24.14h-6.25v8.78h-4.48v-8.78h-6.25v24.15h6.25v-9.76h4.48v9.76zM639 272.15v-5.6h-17.39v5.6h5.57v18.54h6.25v-18.54zM592.43 297c0 3.35-2 5.21-5 5.21s-5-1.86-5-5.21 2.11-5.21 5-5.21 5 1.86 5 5.21m11 0c0-9.18-6.82-14.63-13.08-14.63a8.6 8.6 0 0 0-2.85.25 162.17 162.17 0 0 1 14.76-15.93H588.4a94.26 94.26 0 0 0-11.28 13.76c-3.35 5.21-5.7 10.79-5.7 16.55 0 8.87 6.63 14.94 16.06 14.94s15.92-6.06 15.92-14.94m-102.55-6.39c0 5-2.85 9.73-6.45 10.79v-21.56c3.6 1.05 6.45 5.33 6.45 10.79m11 0c0-11.9-8.12-20.71-21.27-20.71h-7v41.42h7c13.14 0 21.27-8.68 21.27-20.71m-53.07 20.71v-41.42h-10.13v18.72l-8.43-18.72h-10.79v41.42h10.17v-19.16l8.68 19.16zM394 295.16h-5.77l2.85-12.71zm14.57 16.18l-9.92-41.42h-14.54l-9.92 41.42h10.48l1.8-8h9.42l1.8 8zm-85.5-20.65v-24.14h-6.25v8.78h-4.48v-8.78h-6.25v24.15h6.25v-9.76h4.48v9.76zM294 272.15v-5.6h-17.38v5.6h5.57v18.54h6.25v-18.54zm-38 22.57c0-7.69-3.72-14-13.27-14a22 22 0 0 0-3 .12l.31-4.59h14.88v-9.55h-24.97l-1.49 24.8a59.19 59.19 0 0 1 9.92-1.05c4.53 0 6.57 1.61 6.57 4.46 0 6.14-7.25 6.51-11.84 6.51h-4.4v10.29h4.59c13.33 0 22.69-5.15 22.69-17m-84.32-24.8H160l-5.46 11.72-5.39-11.72h-12.2l12 23.19v18.23h10.73v-18.22zm-65 25.23h-5.77l2.85-12.71zm14.57 16.18l-9.92-41.42H96.77l-9.92 41.42h10.48l1.8-8h9.42l1.8 8zm-54.62 0v-41.4h-11l-6.9 12.78-6.94-12.77H31.12v41.42h10.41V288.9l4.59 8.93h5.21l4.59-8.93v22.44zM74.55 67.61l-37.7 37.7 82.57 82.58 82.17-82.17-38.11-38.11H74.55z"/><path class="cls-3" d="M125.9 142.6c-7.25-7.25-16.21-9.79-22.37-3.63s-3.63 15.11 3.63 22.37 16.21 9.79 22.37 3.63 3.63-15.11-3.63-22.37m-6.73 6.73c5.33 5.33 6 8.12 4.42 9.71s-4.38.91-9.71-4.42-6-8.12-4.42-9.71 4.38-.91 9.71 4.42m39.49-14.25l-25.24-25.24-6.2 6.2 11.41 11.41-16.55-6.27-6.57 6.57L140.75 153l6.2-6.2-11.68-11.68 17 6.39zm-1.2-37.57l-5.86-5.86-14.77 14.78 25.24 25.24 6.54-6.54-9.86-9.86 6.69-6.69-5.86-5.86-6.69 6.69-3.67-3.67zM96.34 113.72L79.18 96.57l-6.35 6.35 17 17c1.51 1.51 1.43 3.4-.19 5s-3.48 1.66-5 .15l-17-17-6.54 6.54 17.15 17.15c5.29 5.29 12.21 4.72 17.5-.57s5.86-12.21.57-17.49m28.92-12.7L100 75.76 93.8 82l11.41 11.41-16.55-6.32-6.58 6.57 25.24 25.24 6.2-6.2-11.67-11.7 17 6.39zm11.84-28.69l-6.61 6.61c2.19 2.64 2.19 3.7 1.21 4.69-2.12 2.12-4.95-.19-9.52-4.76s-6.8-7.33-4.68-9.45c.87-.87 1.89-1.06 4.16.91l6.54-6.54c-6-5.37-11.15-5.78-16.51-.42-6.57 6.58-4.87 13.56 3.78 22.22s15.64 10.35 22.07 3.93c5.78-5.78 5.48-10.32-.41-17.19M404 196.41c0 1.8-1.24 4.15-4.77 4.15s-4.77-2.36-4.77-4.15c0-3.1 2.54-4.4 4.77-5.83 2.23 1.43 4.77 2.73 4.77 5.83m-1.12-19.65c0 1.61-1.24 2.67-3.66 4.28-2.42-1.61-3.66-2.67-3.66-4.28 0-1 .68-3 3.66-3 3.29 0 3.66 2.36 3.66 3M415 196.47a10.87 10.87 0 0 0-2.17-7.13 17.18 17.18 0 0 0-4.34-3.78 18.26 18.26 0 0 0 3.6-3.66 9.88 9.88 0 0 0 1.67-5.58c0-7.32-6.88-11.9-14.57-11.9s-14.57 4.59-14.57 11.9a9.88 9.88 0 0 0 1.67 5.58 18.26 18.26 0 0 0 3.6 3.66 17.18 17.18 0 0 0-4.34 3.78 11 11 0 0 0-2.17 7.13c0 9 6.63 13.83 15.81 13.83S415 205.46 415 196.47m-46 13.21V165h-11.39l-10.73 9.86v13.76l11.35-10.54v31.56zm-44.39-22.32c0 4.34.06 9.49-1.55 11.47-.56.68-1.36 1.05-3.22 1.05s-2.67-.37-3.22-1.05c-1.61-2-1.55-7.13-1.55-11.47s-.06-9.49 1.55-11.47c.56-.68 1.36-1.05 3.22-1.05s2.67.37 3.22 1.05c1.61 2 1.55 7.13 1.55 11.47m11 0c0-8.93-1.24-16.86-4.9-20.15-2.42-2.17-6.57-2.79-10.91-2.79s-8.49.62-10.91 2.79c-3.66 3.29-4.9 11.22-4.9 20.15s1.24 16.86 4.9 20.15c2.42 2.17 6.57 2.79 10.91 2.79s8.49-.62 10.91-2.79c3.66-3.29 4.9-11.22 4.9-20.15M295 177.5c0-6.2-3.35-13.08-14.51-13.08-4.71 0-8.62 1.18-14 4.77v11.16c8.18-5.77 11.53-6.2 14.2-6.2a3.21 3.21 0 0 1 3.31 3.35 4.54 4.54 0 0 1-1.43 3.47 19 19 0 0 1-4.15 3c-4.22 2.6-7.19 4.77-9.24 7.63s-3.22 6.32-3.22 11.66v6.45h28.46v-9.61h-17.3c.81-4 4.71-6.32 9.18-9.18 2.67-1.67 5.15-3.35 6.76-6.14a15.32 15.32 0 0 0 2-7.25M537.47 140.7v-22.39H523v9.49h3.72v5.52a6.82 6.82 0 0 1-1.92.25c-5 0-6-5.83-6-11.59 0-6 1.18-11.59 5.21-11.59 1.55 0 2.36.74 2.67 3h10.73c-.62-7.81-4.71-12.71-12.83-12.71-12.28 0-16.8 10.6-16.8 21.33 0 11.16 4.09 21.33 16.74 21.33a28.79 28.79 0 0 0 12.9-2.6m-51-26.54c0 1.67-.74 3.29-3.35 3.29h-2.54v-6.57h2.54c2.6 0 3.35 1.61 3.35 3.29m15 28.52l-10.11-17.42c3.91-2.17 6.14-6.14 6.14-11.1 0-7.75-5.7-12.9-13.89-12.9h-13.79v41.42h10.79v-15.5h.25l8.18 15.5zm-42.78-13.27v-28.2h-10.39v27.9c0 2.48-1.61 4-4.28 4s-4.22-1.49-4.22-4v-27.9H429v28.15c0 8.68 6.14 13.89 14.82 13.89s14.82-5.21 14.82-13.89m-49.29-.12c0 1.92-1.12 3.84-4.09 3.84h-5.77v-7.69h5.77c3 0 4.09 1.92 4.09 3.84m-1.05-15.56c0 1.36-.74 2.91-3.22 2.91h-5.58v-5.83h5.58c2.48 0 3.22 1.55 3.22 2.91m12.09 15.93c0-2.67-.87-6.57-4.4-8.8 2-1.36 3.22-4.4 3.22-7.5 0-7.81-6.08-12.09-14.45-12.09h-16v41.42h16.74c9.18 0 14.88-5.33 14.88-13m-40.67 13v-41.41h-11L361.83 114l-6.94-12.77h-10.67v41.42h10.42v-22.41l4.59 8.93h5.21l4.59-8.93v22.44zm-57.25-16.17h-5.77l2.85-12.71zM337 142.68l-9.92-41.42h-14.54l-9.92 41.42h10.48l1.8-8h9.42l1.8 8zm-42.28 0v-41.42H284v15.07h-7.69v-15.07H265.6v41.42h10.73v-16.74H284v16.74zM665.69 43.87v-9.61h-24.25v41.42h10.73V59.5h11v-9.61h-11v-6zm-36 31.81V34.26H619.5V53l-8.43-18.72h-10.79v41.4h10.17V56.52l8.68 19.16zM579.63 55c0 8.74-1.74 11.59-4.34 11.59S571 63.71 571 55s1.74-11.59 4.34-11.59 4.34 2.85 4.34 11.59m11 0c0-11.9-5.27-21.33-15.38-21.33s-15.39 9.4-15.39 21.33 5.27 21.33 15.38 21.33 15.38-9.45 15.38-21.33m-37.88 6.88h-10.85c-.37 4-1.24 4.84-2.85 4.84-3.47 0-3.91-4.22-3.91-11.72s.43-11.59 3.91-11.59c1.43 0 2.42.68 2.67 4.15h10.73c-.5-9.3-4.4-13.89-13.21-13.89-10.79 0-15.13 7.13-15.13 21.33s4.33 21.3 14.85 21.3c9.49 0 13-4 13.76-14.45m-39.65 13.83V34.26h-10.17V53l-8.43-18.72h-10.79v41.4h10.17V56.52l8.68 19.16zm-39.56-13.27V34.26h-10.42v27.9c0 2.48-1.61 4-4.28 4s-4.22-1.49-4.22-4v-27.9h-10.72v28.15c0 8.68 6.14 13.89 14.82 13.89s14.82-5.21 14.82-13.89m-59.46-28.15h-11.65L397 46l-5.39-11.72h-12.24l12 23.19v18.21h10.73V57.45zm-49.35 28c0 1.92-1.12 3.84-4.09 3.84h-5.77v-7.66h5.77c3 0 4.09 1.92 4.09 3.84m-1.05-15.56c0 1.36-.74 2.91-3.22 2.91h-5.58v-5.82h5.58c2.48 0 3.22 1.55 3.22 2.91m12.09 15.93c0-2.67-.87-6.57-4.4-8.8 2-1.36 3.22-4.4 3.22-7.5 0-7.81-6.08-12.09-14.45-12.09h-16v41.42h16.75c9.18 0 14.88-5.33 14.88-13m-41.11-.25V34.26h-10.41v27.9c0 2.48-1.61 4-4.28 4s-4.22-1.49-4.22-4v-27.9H305v28.15c0 8.68 6.14 13.89 14.82 13.89s14.82-5.21 14.82-13.89m-51.55-15.25c0 1.67-.74 3.29-3.35 3.29h-2.54v-6.58h2.54c2.6 0 3.35 1.61 3.35 3.29m15 28.52L288 58.26c3.91-2.17 6.14-6.14 6.14-11.1 0-7.75-5.7-12.9-13.89-12.9h-13.84v41.42h10.79v-15.5h.25l8.18 15.5z"/></svg>
