
<svg width="698px" height="334px" viewBox="0 0 698 334" version="1.1" xmlns="http://www.w3.org/2000/svg" xmlns:xlink="http://www.w3.org/1999/xlink">
    <!-- Generator: Sketch 48.2 (47327) - http://www.bohemiancoding.com/sketch -->
    <desc>Created with Sketch.</desc>
    <defs></defs>
    <g id="Page-1" stroke="none" stroke-width="1" fill="none" fill-rule="evenodd">
        <g id="Landing-page-Copy" transform="translate(-291.000000, -193.000000)">
            <g id="Page-1" transform="translate(291.000000, 195.000000)">
                <path d="M0,-0.0004 L241.476,-0.0004" id="Stroke-1" stroke="#E85454" stroke-width="4"></path>
                <path d="M2,237.476 L2,2" id="Stroke-2" stroke="#E85454" stroke-width="4"></path>
                <path d="M241.4764,-0.0004 L697.7584,-0.0004" id="Stroke-3" stroke="#E85454" stroke-width="4"></path>
                <path d="M241.4764,237.476 L241.4764,2" id="Stroke-4" stroke="#E85454" stroke-width="4"></path>
                <path d="M695.7587,237.476 L695.7587,2" id="Stroke-5" stroke="#E85454" stroke-width="4"></path>
                <path d="M0,239.476 L241.476,239.476" id="Stroke-6" stroke="#E85454" stroke-width="4"></path>
                <path d="M2,327.602 L2,241.476" id="Stroke-7" stroke="#E85454" stroke-width="4"></path>
                <path d="M241.4764,239.476 L697.7584,239.476" id="Stroke-8" stroke="#E85454" stroke-width="4"></path>
                <path d="M695.7587,327.602 L695.7587,241.476" id="Stroke-9" stroke="#E85454" stroke-width="4"></path>
                <g id="Group-14" transform="translate(0.000000, 328.922000)" stroke="#E85454" stroke-width="4">
                    <path d="M0,0.68 L241.476,0.68" id="Stroke-10"></path>
                    <path d="M241.4764,0.68 L697.7584,0.68" id="Stroke-12"></path>
                </g>
                <text id="5th-&amp;-6th-May" font-family="Roboto-Regular, Roboto" font-size="47" font-weight="normal" fill="#E85454">
                    <tspan x="201" y="300">5th &amp; 6th May</tspan>
                </text>
                <polygon id="Fill-15" fill="#E85454" points="74.5501 65.6133 36.8501 103.3133 119.4231 185.8853 201.5881 103.7193 163.4811 65.6133"></polygon>
                <g id="Group-20" transform="translate(61.000000, 56.922000)" fill="#5C4594">
                    <path d="M96.4642,38.5865 L90.6072,32.7295 L75.8332,47.5045 L101.0732,72.7445 L107.6112,66.2085 L97.7492,56.3455 L104.4372,49.6575 L98.5802,43.8005 L91.8922,50.4895 L88.2262,46.8235 L96.4642,38.5865 Z M97.6622,76.1565 L72.4212,50.9155 L66.2242,57.1135 L77.6352,68.5235 L61.0862,62.2515 L54.5112,68.8265 L79.7512,94.0665 L85.9482,87.8705 L74.2732,76.1945 L91.2382,82.5805 L97.6622,76.1565 Z M58.1722,90.4055 C63.5002,95.7325 64.1802,98.5295 62.5922,100.1175 C61.0052,101.7035 58.2102,101.0235 52.8822,95.6955 C47.5542,90.3675 46.8732,87.5725 48.4612,85.9855 C50.0482,84.3975 52.8452,85.0775 58.1722,90.4055 Z M64.8982,83.6795 C57.6432,76.4255 48.6882,73.8935 42.5292,80.0525 C36.3702,86.2115 38.9022,95.1665 46.1562,102.4215 C53.4112,109.6755 62.3662,112.2075 68.5252,106.0485 C74.6842,99.8895 72.1522,90.9345 64.8982,83.6795 Z" id="Fill-16"></path>
                    <path d="M76.0748,13.3829 L69.4618,19.9949 C71.6538,22.6399 71.6538,23.6979 70.6708,24.6809 C68.5548,26.7969 65.7208,24.4929 61.1488,19.9209 C56.5768,15.3479 54.3478,12.5899 56.4638,10.4739 C57.3328,9.6049 58.3528,9.4159 60.6198,11.3799 L67.1568,4.8439 C61.1868,-0.5221 56.0108,-0.9381 50.6438,4.4279 C44.0708,11.0029 45.7708,17.9919 54.4228,26.6459 C63.0758,35.2989 70.0668,36.9989 76.4898,30.5759 C82.2718,24.7939 81.9688,20.2599 76.0748,13.3829 Z M64.2368,42.0729 L38.9948,16.8329 L32.7988,23.0289 L44.2088,34.4409 L27.6598,28.1689 L21.0848,34.7429 L46.3258,59.9839 L52.5228,53.7879 L40.8468,42.1119 L57.8118,48.4979 L64.2368,42.0729 Z M35.3378,54.7999 L18.1838,37.6459 L11.8348,43.9929 L28.8388,60.9959 C30.3498,62.5079 30.2738,64.3969 28.6498,66.0229 C27.0248,67.6469 25.1728,67.6849 23.6618,66.1729 L6.6578,49.1699 L0.1218,55.7069 L17.2758,72.8619 C22.5658,78.1519 29.4808,77.5839 34.7708,72.2949 C40.0608,67.0049 40.6278,60.0899 35.3378,54.7999 Z" id="Fill-18"></path>
                </g>
                <text id="RUBY-UNCONF" font-family="Roboto-Black, Roboto" font-size="62" font-weight="700" fill="#5C4594">
                    <tspan x="259" y="74">RUBY UNCONF</tspan>
                </text>
                <text id="HAMBURG" font-family="Roboto-Black, Roboto" font-size="62" font-weight="700" fill="#5C4594">
                    <tspan x="259" y="141">HAMBURG</tspan>
                </text>
                <text id="2018" font-family="Roboto-Black, Roboto" font-size="62" font-weight="700" letter-spacing="-2.48000002" fill="#5C4594">
                    <tspan x="259" y="208">2018</tspan>
                </text>
            </g>
        </g>
    </g>
</svg>