<svg width="698" height="334" xmlns="http://www.w3.org/2000/svg"><g fill="none" fill-rule="evenodd"><path d="M0 2h241.476M2 239.476V4M241.476 2h456.282M241.476 239.476V4M695.759 239.476V4M0 241.476h241.476M2 329.602v-86.126M241.476 241.476h456.282M695.759 329.602v-86.126" stroke="#E85454" stroke-width="4"/><g stroke="#E85454" stroke-width="4"><path d="M0 331.602h241.476M241.476 331.602h456.282"/></g><path d="M205.728 285.247l1.698-16.661h17.12v3.924h-13.517l-1.01 9.111c1.637-.964 3.496-1.446 5.577-1.446 3.044 0 5.462 1.006 7.252 3.018 1.79 2.012 2.685 4.731 2.685 8.159 0 3.442-.93 6.154-2.789 8.135-1.859 1.981-4.456 2.972-7.79 2.972-2.954 0-5.363-.819-7.23-2.456-1.866-1.637-2.93-3.9-3.19-6.793h4.016c.26 1.913.941 3.355 2.043 4.326 1.101.972 2.555 1.458 4.36 1.458 1.974 0 3.523-.674 4.647-2.02 1.125-1.346 1.687-3.205 1.687-5.577 0-2.233-.608-4.027-1.824-5.381-1.217-1.354-2.835-2.031-4.854-2.031-1.851 0-3.305.405-4.36 1.216l-1.125.918-3.396-.872zm30.637-14.09v6.012H241v3.282h-4.635v15.399c0 .994.206 1.74.62 2.237.412.497 1.116.746 2.11.746.49 0 1.163-.092 2.02-.275V302a12.308 12.308 0 0 1-3.259.459c-1.897 0-3.327-.574-4.291-1.721-.964-1.148-1.446-2.777-1.446-4.888v-15.4h-4.52v-3.281h4.52v-6.013h4.246zm13.838 9.018c1.882-2.31 4.33-3.465 7.344-3.465 5.248 0 7.894 2.96 7.94 8.881V302h-4.245v-16.432c-.016-1.79-.425-3.113-1.228-3.97-.803-.857-2.054-1.285-3.752-1.285-1.377 0-2.586.367-3.626 1.102-1.04.734-1.851 1.698-2.433 2.891V302h-4.245v-35.25h4.245v13.425zm32.381 12.852c0-1.607.448-3.083 1.343-4.43.895-1.346 2.605-2.914 5.13-4.704-1.485-1.805-2.48-3.259-2.984-4.36-.505-1.102-.758-2.196-.758-3.282 0-2.54.75-4.529 2.25-5.967 1.499-1.438 3.534-2.157 6.104-2.157 2.295 0 4.192.67 5.691 2.008 1.5 1.339 2.25 3.025 2.25 5.06a7.14 7.14 0 0 1-1.022 3.73c-.68 1.14-1.87 2.337-3.568 3.591l-2.456 1.813L302 293.21c1.04-1.988 1.56-4.2 1.56-6.632h3.833c0 3.902-.941 7.137-2.823 9.708l4.773 5.714h-5.094l-2.227-2.64c-1.132 1.01-2.459 1.78-3.981 2.307a14.093 14.093 0 0 1-4.647.792c-3.26 0-5.875-.864-7.85-2.593-1.973-1.73-2.96-4.009-2.96-6.84zm10.81 5.967c2.249 0 4.306-.857 6.173-2.57l-8.147-9.754-.757.55c-2.555 1.883-3.833 3.818-3.833 5.807 0 1.805.585 3.251 1.756 4.337 1.17 1.087 2.773 1.63 4.808 1.63zm-3.833-22.88c0 1.468.903 3.304 2.708 5.507l2.708-1.905c1.04-.734 1.752-1.434 2.134-2.1.383-.665.574-1.472.574-2.42 0-1.026-.382-1.879-1.147-2.56-.765-.68-1.73-1.02-2.892-1.02-1.255 0-2.249.424-2.983 1.273-.735.849-1.102 1.924-1.102 3.224zm50.993-7.551v3.603h-.78c-3.305.061-5.936 1.04-7.895 2.938-1.958 1.897-3.09 4.566-3.396 8.009 1.76-2.02 4.161-3.03 7.206-3.03 2.907 0 5.229 1.026 6.965 3.076 1.737 2.05 2.605 4.697 2.605 7.94 0 3.443-.937 6.196-2.811 8.262-1.875 2.065-4.388 3.098-7.54 3.098-3.197 0-5.79-1.228-7.78-3.683-1.988-2.456-2.982-5.62-2.982-9.49v-1.63c0-6.15 1.311-10.85 3.935-14.102 2.624-3.25 6.53-4.915 11.716-4.991h.757zm-5.576 15.055c-1.454 0-2.793.436-4.017 1.308-1.224.872-2.073 1.966-2.547 3.282v1.56c0 2.754.62 4.972 1.859 6.655 1.24 1.683 2.784 2.525 4.636 2.525 1.912 0 3.415-.704 4.51-2.112 1.093-1.407 1.64-3.25 1.64-5.53 0-2.295-.555-4.15-1.664-5.566-1.109-1.415-2.582-2.122-4.417-2.122zm21.503-12.462v6.013h4.636v3.282h-4.636v15.399c0 .994.206 1.74.62 2.237.413.497 1.116.746 2.11.746.49 0 1.164-.092 2.02-.275V302a12.308 12.308 0 0 1-3.258.459c-1.897 0-3.328-.574-4.292-1.721-.964-1.148-1.446-2.777-1.446-4.888v-15.4h-4.52v-3.281h4.52v-6.013h4.246zm13.838 9.02c1.882-2.31 4.33-3.466 7.344-3.466 5.248 0 7.895 2.96 7.94 8.881V302h-4.245v-16.432c-.015-1.79-.425-3.113-1.228-3.97-.803-.857-2.054-1.285-3.752-1.285-1.377 0-2.586.367-3.626 1.102-1.04.734-1.851 1.698-2.433 2.891V302h-4.245v-35.25h4.245v13.425zm39.634-11.59l10.923 27.264 10.924-27.264h5.715V302h-4.407v-13.012l.413-14.045L422.551 302h-3.373l-10.947-26.988.436 13.976V302h-4.406v-33.414h5.692zM459.959 302c-.245-.49-.444-1.362-.597-2.616-1.973 2.05-4.33 3.075-7.068 3.075-2.448 0-4.456-.692-6.024-2.077-1.568-1.385-2.353-3.14-2.353-5.267 0-2.585.983-4.593 2.95-6.024 1.965-1.43 4.73-2.146 8.296-2.146h4.13v-1.95c0-1.484-.443-2.666-1.33-3.546-.888-.88-2.196-1.32-3.925-1.32-1.515 0-2.784.383-3.81 1.148-1.025.765-1.537 1.69-1.537 2.777h-4.269c0-1.24.44-2.437 1.32-3.592.88-1.155 2.073-2.07 3.58-2.742 1.507-.673 3.163-1.01 4.969-1.01 2.86 0 5.102.715 6.724 2.146 1.621 1.43 2.463 3.4 2.524 5.91v11.428c0 2.28.29 4.092.872 5.439V302h-4.452zm-7.045-3.236c1.33 0 2.593-.344 3.786-1.033 1.194-.688 2.058-1.583 2.593-2.685v-5.094h-3.327c-5.202 0-7.803 1.522-7.803 4.567 0 1.33.444 2.371 1.331 3.12.888.75 2.027 1.125 3.42 1.125zm25.06-2.983l5.783-18.612h4.544l-9.983 28.664c-1.545 4.13-4 6.196-7.366 6.196l-.804-.069-1.583-.298v-3.443l1.147.092c1.439 0 2.56-.29 3.362-.872.804-.581 1.465-1.645 1.986-3.19l.94-2.524-8.858-24.556h4.636l6.196 18.612zM74.55 67.613l-37.7 37.7 82.573 82.572 82.165-82.166-38.107-38.106z" fill="#E85454"/><g fill="#5C4594"><path d="M157.464 97.508l-5.857-5.856-14.774 14.774 25.24 25.24 6.538-6.535-9.862-9.863 6.688-6.688-5.857-5.857-6.688 6.689-3.666-3.666 8.238-8.237zm1.198 37.57l-25.24-25.24-6.198 6.198 11.411 11.41-16.549-6.272-6.575 6.575 25.24 25.24 6.197-6.196-11.675-11.676 16.965 6.386 6.424-6.424zm-39.49 14.25c5.328 5.326 6.008 8.123 4.42 9.711-1.587 1.586-4.382.906-9.71-4.422-5.328-5.328-6.009-8.123-4.42-9.71 1.586-1.588 4.383-.908 9.71 4.42zm6.726-6.727c-7.255-7.254-16.21-9.786-22.369-3.627-6.159 6.16-3.627 15.114 3.627 22.37 7.255 7.253 16.21 9.785 22.37 3.626 6.158-6.159 3.626-15.114-3.628-22.369zM137.075 72.305l-6.613 6.612c2.192 2.645 2.192 3.703 1.209 4.686-2.116 2.116-4.95-.188-9.522-4.76-4.572-4.573-6.801-7.331-4.685-9.447.869-.87 1.889-1.058 4.156.906l6.537-6.536c-5.97-5.366-11.146-5.782-16.513-.416-6.573 6.575-4.873 13.564 3.779 22.218 8.653 8.653 15.644 10.353 22.067 3.93 5.782-5.782 5.479-10.316-.415-17.193zm-11.838 28.69l-25.242-25.24-6.196 6.196 11.41 11.412-16.55-6.272-6.574 6.574 25.24 25.24 6.198-6.195-11.676-11.676 16.965 6.386 6.425-6.425zm-28.9 12.727L79.185 96.568l-6.35 6.347 17.005 17.003c1.51 1.512 1.435 3.4-.19 5.027-1.624 1.624-3.476 1.662-4.987.15l-17.004-17.003-6.536 6.537 17.154 17.155c5.29 5.29 12.205 4.722 17.495-.567 5.29-5.29 5.857-12.205.567-17.495z"/></g><path d="M278.708 60.44h-5.752V76H262.33V31.922h17.347c5.227 0 9.314 1.16 12.26 3.481 2.947 2.321 4.42 5.6 4.42 9.84 0 3.067-.62 5.61-1.861 7.628-1.242 2.018-3.184 3.653-5.828 4.904l9.203 17.77V76h-11.383l-7.78-15.56zm-5.752-8.205h6.72c2.019 0 3.538-.53 4.557-1.589 1.02-1.06 1.529-2.538 1.529-4.435 0-1.897-.515-3.386-1.544-4.465-1.03-1.08-2.543-1.62-4.541-1.62h-6.72v12.11zm64.392-20.313v28.85c0 3.27-.697 6.1-2.09 8.492-1.392 2.392-3.39 4.213-5.993 5.465-2.604 1.25-5.682 1.876-9.234 1.876-5.368 0-9.596-1.392-12.684-4.177-3.088-2.785-4.662-6.6-4.723-11.444V31.922h10.687v29.274c.12 4.824 2.36 7.236 6.72 7.236 2.2 0 3.865-.606 4.995-1.817 1.13-1.21 1.696-3.178 1.696-5.903v-28.79h10.626zM343.978 76V31.922h15.833c5.67 0 9.985 1.04 12.941 3.118 2.957 2.079 4.435 5.096 4.435 9.052 0 2.28-.524 4.228-1.574 5.843-1.05 1.614-2.593 2.805-4.632 3.572 2.301.605 4.067 1.736 5.298 3.39 1.231 1.655 1.847 3.674 1.847 6.055 0 4.32-1.367 7.563-4.102 9.733-2.735 2.17-6.786 3.275-12.155 3.315h-17.891zm10.626-18.74v10.566h6.962c1.918 0 3.391-.439 4.42-1.317 1.03-.878 1.544-2.114 1.544-3.708 0-3.673-1.826-5.52-5.48-5.54h-7.446zm0-6.962h5.54c2.32-.02 3.975-.444 4.964-1.272.99-.827 1.484-2.048 1.484-3.663 0-1.856-.535-3.194-1.605-4.01-1.07-.818-2.795-1.227-5.176-1.227h-5.207v10.172zm43.835.757l8.114-19.133h11.473l-14.198 28.245V76h-10.777V60.167l-14.168-28.245h11.413l8.143 19.133zm72.808-19.133v28.85c0 3.27-.696 6.1-2.089 8.492-1.392 2.392-3.39 4.213-5.994 5.465-2.603 1.25-5.681 1.876-9.233 1.876-5.369 0-9.597-1.392-12.685-4.177-3.088-2.785-4.662-6.6-4.723-11.444V31.922h10.687v29.274c.121 4.824 2.361 7.236 6.72 7.236 2.2 0 3.866-.606 4.996-1.817 1.13-1.21 1.695-3.178 1.695-5.903v-28.79h10.626zM514.69 76h-10.565l-15.621-27.428V76h-10.626V31.922h10.626l15.59 27.428V31.922h10.596V76zm42.383-14.925c-.141 3.068-.968 5.777-2.482 8.129-1.514 2.35-3.638 4.172-6.373 5.464-2.734 1.292-5.858 1.937-9.37 1.937-5.792 0-10.353-1.887-13.683-5.66-3.33-3.775-4.995-9.103-4.995-15.985v-2.18c0-4.319.752-8.098 2.255-11.337 1.504-3.24 3.668-5.742 6.494-7.508 2.826-1.766 6.095-2.649 9.809-2.649 5.348 0 9.647 1.408 12.896 4.223 3.25 2.816 5.096 6.696 5.54 11.64h-10.596c-.08-2.684-.756-4.611-2.028-5.782-1.271-1.17-3.209-1.756-5.812-1.756-2.644 0-4.582.99-5.813 2.967-1.231 1.978-1.877 5.136-1.937 9.476v3.118c0 4.702.59 8.063 1.77 10.08 1.181 2.02 3.215 3.028 6.1 3.028 2.443 0 4.31-.575 5.601-1.725 1.292-1.15 1.978-2.977 2.059-5.48h10.565zm42.353-6.206c0 4.299-.797 8.103-2.392 11.413-1.594 3.31-3.86 5.858-6.796 7.644-2.937 1.786-6.282 2.68-10.036 2.68-3.754 0-7.084-.863-9.99-2.589-2.906-1.726-5.172-4.193-6.796-7.402-1.625-3.209-2.478-6.892-2.559-11.05v-2.482c0-4.319.793-8.128 2.377-11.428 1.584-3.3 3.855-5.848 6.811-7.644 2.957-1.796 6.323-2.695 10.097-2.695 3.733 0 7.063.888 9.99 2.664 2.926 1.777 5.202 4.304 6.827 7.584 1.624 3.28 2.447 7.039 2.467 11.277v2.028zm-10.808-1.847c0-4.38-.731-7.704-2.195-9.975-1.463-2.27-3.557-3.405-6.281-3.405-5.329 0-8.144 3.996-8.447 11.988l-.03 3.24c0 4.318.717 7.638 2.15 9.96 1.432 2.32 3.562 3.48 6.387 3.48 2.684 0 4.753-1.14 6.206-3.42 1.453-2.281 2.19-5.56 2.21-9.84v-2.028zM641.717 76H631.15l-15.62-27.428V76h-10.627V31.922h10.626l15.591 27.428V31.922h10.596V76zm34.481-17.559h-17.135V76h-10.625V31.922h29.486v8.204h-18.86v10.142h17.134v8.173zM299.173 143h-10.566v-18.406h-15.65V143H262.33V98.922h10.626v17.498h15.651V98.922h10.566V143zm32.302-8.234h-14.562L314.37 143h-11.352l16.166-44.078h9.99L345.46 143h-11.413l-2.573-8.234zm-12.019-8.204h9.476l-4.753-15.289-4.723 15.289zm43.17-27.64l9.839 30.667 9.808-30.667h13.987V143h-10.656v-10.293l1.029-21.07L375.977 143h-7.024l-10.686-31.394 1.029 21.101V143H348.67V98.922h13.956zM403.011 143V98.922h15.833c5.671 0 9.985 1.04 12.942 3.118 2.956 2.079 4.435 5.096 4.435 9.052 0 2.28-.525 4.228-1.575 5.843-1.049 1.614-2.593 2.805-4.631 3.572 2.3.605 4.066 1.736 5.298 3.39 1.23 1.655 1.846 3.674 1.846 6.055 0 4.32-1.367 7.563-4.102 9.733-2.735 2.17-6.786 3.275-12.155 3.315h-17.891zm10.626-18.74v10.566h6.963c1.917 0 3.39-.439 4.42-1.317 1.029-.878 1.543-2.114 1.543-3.708 0-3.673-1.826-5.52-5.479-5.54h-7.447zm0-6.962h5.54c2.32-.02 3.976-.444 4.965-1.272.989-.827 1.483-2.048 1.483-3.663 0-1.856-.535-3.194-1.604-4.01-1.07-.818-2.796-1.227-5.177-1.227h-5.207v10.172zm63.937-18.376v28.85c0 3.27-.696 6.1-2.089 8.492-1.392 2.392-3.39 4.213-5.994 5.465-2.603 1.25-5.681 1.876-9.233 1.876-5.369 0-9.597-1.392-12.685-4.177-3.088-2.785-4.662-6.6-4.722-11.444V98.922h10.686v29.274c.121 4.824 2.361 7.236 6.72 7.236 2.2 0 3.866-.606 4.996-1.817 1.13-1.21 1.695-3.178 1.695-5.903v-28.79h10.626zm23.008 28.517h-5.752V143h-10.626V98.922h17.347c5.227 0 9.314 1.16 12.26 3.481 2.947 2.321 4.42 5.6 4.42 9.84 0 3.067-.62 5.61-1.861 7.628-1.242 2.018-3.184 3.653-5.828 4.904l9.203 17.77V143h-11.383l-7.78-15.56zm-5.752-8.204h6.72c2.019 0 3.538-.53 4.557-1.589 1.02-1.06 1.529-2.538 1.529-4.435 0-1.897-.515-3.386-1.544-4.465-1.03-1.08-2.543-1.62-4.541-1.62h-6.72v12.11zm65.905 18.316c-1.634 1.816-4.026 3.28-7.174 4.39-3.149 1.11-6.6 1.664-10.354 1.664-5.772 0-10.384-1.765-13.835-5.297-3.451-3.532-5.298-8.447-5.54-14.744l-.03-3.814c0-4.34.767-8.128 2.3-11.368 1.534-3.239 3.73-5.731 6.585-7.477 2.856-1.746 6.16-2.619 9.915-2.619 5.49 0 9.753 1.256 12.79 3.77 3.038 2.512 4.809 6.26 5.313 11.246h-10.232c-.364-2.462-1.15-4.218-2.362-5.268-1.21-1.05-2.926-1.574-5.146-1.574-2.664 0-4.723 1.13-6.176 3.39-1.453 2.261-2.19 5.49-2.21 9.688v2.664c0 4.4.752 7.705 2.255 9.915 1.504 2.21 3.87 3.315 7.1 3.315 2.765 0 4.823-.616 6.175-1.847v-6.842h-7.386v-7.296h18.012v18.104zM292.452 210h-30.758v-6.66l14.168-14.895c3.492-3.976 5.238-7.134 5.238-9.475 0-1.897-.414-3.34-1.242-4.33-.827-.988-2.028-1.483-3.602-1.483-1.554 0-2.816.661-3.784 1.983-.97 1.322-1.453 2.972-1.453 4.95h-10.233c0-2.705.676-5.202 2.028-7.493 1.353-2.29 3.23-4.082 5.631-5.373 2.402-1.292 5.086-1.938 8.053-1.938 4.763 0 8.431 1.1 11.004 3.3 2.574 2.2 3.86 5.358 3.86 9.476a13.76 13.76 0 0 1-.968 5.07c-.646 1.645-1.65 3.37-3.013 5.177-1.362 1.806-3.557 4.223-6.584 7.25l-5.692 6.57h17.347V210zm33.273-18.013c0 5.954-1.337 10.546-4.011 13.775-2.674 3.229-6.443 4.843-11.307 4.843-4.905 0-8.699-1.624-11.383-4.874-2.684-3.249-4.026-7.83-4.026-13.744v-8.052c0-5.954 1.337-10.546 4.01-13.775 2.675-3.229 6.454-4.844 11.338-4.844 4.884 0 8.668 1.625 11.353 4.874 2.684 3.25 4.026 7.841 4.026 13.775v8.022zm-10.202-9.354c0-3.169-.414-5.535-1.241-7.1-.828-1.563-2.14-2.345-3.936-2.345-1.756 0-3.032.726-3.83 2.18-.797 1.452-1.225 3.652-1.286 6.599v11.262c0 3.29.414 5.696 1.241 7.22.828 1.524 2.14 2.285 3.936 2.285 1.735 0 3.017-.741 3.844-2.225.828-1.483 1.252-3.81 1.272-6.978v-10.898zM351.157 210h-10.232v-32.574l-10.051 2.936v-7.75l19.345-6.69h.938V210zm40.539-32.302c0 2.14-.53 4.027-1.59 5.661-1.06 1.635-2.517 2.947-4.374 3.936 2.099 1.03 3.764 2.437 4.995 4.223 1.231 1.786 1.847 3.9 1.847 6.342 0 3.936-1.358 7.044-4.072 9.325-2.715 2.28-6.453 3.42-11.216 3.42-4.784 0-8.558-1.145-11.323-3.436-2.765-2.29-4.147-5.393-4.147-9.309 0-2.361.605-4.45 1.816-6.266 1.211-1.817 2.927-3.25 5.147-4.3-1.877-.988-3.35-2.3-4.42-3.935-1.07-1.634-1.605-3.521-1.605-5.66 0-3.835 1.302-6.863 3.906-9.083 2.603-2.22 6.115-3.33 10.535-3.33 4.46 0 7.992 1.11 10.595 3.33 2.604 2.22 3.906 5.248 3.906 9.082zm-9.355 19.345c0-1.816-.469-3.214-1.407-4.193-.939-.979-2.175-1.468-3.709-1.468-1.534 0-2.775.49-3.724 1.468-.948.979-1.422 2.377-1.422 4.193 0 1.756.479 3.143 1.438 4.163.958 1.019 2.215 1.528 3.769 1.528 1.513 0 2.734-.504 3.663-1.513.928-1.01 1.392-2.402 1.392-4.178zm-5.146-23.886c-1.373 0-2.417.45-3.134 1.347-.716.899-1.074 2.145-1.074 3.74 0 1.573.363 2.845 1.09 3.814.726.968 1.796 1.453 3.209 1.453 1.392 0 2.437-.485 3.133-1.453.696-.97 1.044-2.24 1.044-3.815 0-1.574-.358-2.815-1.074-3.723-.717-.909-1.781-1.363-3.194-1.363z" fill="#5C4594"/></g></svg>